<mxfile host="app.diagrams.net" modified="2024-01-03T08:24:43.975Z" agent="Mozilla/5.0 (Windows NT 10.0; Win64; x64) AppleWebKit/537.36 (KHTML, like Gecko) Chrome/120.0.0.0 Safari/537.36" etag="JrbVhHsqdeVWfgKzgcZ1" version="22.1.15" type="google">
  <diagram name="Page-1" id="zjtQdhBp9jaeCj07c4Xp">
    <mxGraphModel grid="1" page="1" gridSize="10" guides="1" tooltips="1" connect="1" arrows="1" fold="1" pageScale="1" pageWidth="850" pageHeight="1100" math="0" shadow="0">
      <root>
        <mxCell id="0" />
        <mxCell id="1" parent="0" />
        <mxCell id="2yg5KASqGBkeXSeHkA1k-1" value="&lt;div style=&quot;background-color:#1e1f22;color:#bcbec4&quot;&gt;&lt;pre style=&quot;font-family:&#39;JetBrains Mono&#39;,monospace;font-size:9.8pt;&quot;&gt;app = ttk.Window(&#39;PDF Ninja&#39;, &lt;span style=&quot;color:#6aab73;&quot;&gt;&#39;darkly&#39;&lt;/span&gt;)&lt;br&gt;&lt;/pre&gt;&lt;/div&gt;" style="rounded=1;whiteSpace=wrap;html=1;" vertex="1" parent="1">
          <mxGeometry x="80" y="80" width="310" height="40" as="geometry" />
        </mxCell>
        <mxCell id="2yg5KASqGBkeXSeHkA1k-2" value="&lt;div style=&quot;background-color:#1e1f22;color:#bcbec4&quot;&gt;&lt;pre style=&quot;font-family:&#39;JetBrains Mono&#39;,monospace;font-size:9.8pt;&quot;&gt;class PdfNinja(ttk.Frame):&lt;br&gt;&lt;/pre&gt;&lt;/div&gt;" style="rounded=1;whiteSpace=wrap;html=1;align=left;" vertex="1" parent="1">
          <mxGeometry x="160" y="145" width="200" height="40" as="geometry" />
        </mxCell>
        <mxCell id="2yg5KASqGBkeXSeHkA1k-59" style="edgeStyle=orthogonalEdgeStyle;rounded=0;orthogonalLoop=1;jettySize=auto;html=1;entryX=0;entryY=0.5;entryDx=0;entryDy=0;" edge="1" parent="1" source="2yg5KASqGBkeXSeHkA1k-3" target="2yg5KASqGBkeXSeHkA1k-4">
          <mxGeometry relative="1" as="geometry" />
        </mxCell>
        <mxCell id="2yg5KASqGBkeXSeHkA1k-3" value="&lt;div style=&quot;background-color:#1e1f22;color:#bcbec4&quot;&gt;&lt;pre style=&quot;font-family:&#39;JetBrains Mono&#39;,monospace;font-size:9.8pt;&quot;&gt;def &lt;span style=&quot;color:#b200b2;&quot;&gt;__init__&lt;/span&gt;(&lt;span style=&quot;color:#94558d;&quot;&gt;self&lt;/span&gt;, master_window):&lt;br&gt;    &lt;span style=&quot;color:#8888c6;&quot;&gt;super&lt;/span&gt;().&lt;span style=&quot;color:#b200b2;&quot;&gt;__init__&lt;/span&gt;(master_window, &lt;span style=&quot;color:#aa4926;&quot;&gt;padding&lt;/span&gt;=(&lt;span style=&quot;color:#2aacb8;&quot;&gt;0&lt;/span&gt;, &lt;span style=&quot;color:#2aacb8;&quot;&gt;0&lt;/span&gt;))&lt;/pre&gt;&lt;/div&gt;" style="rounded=1;whiteSpace=wrap;html=1;align=left;" vertex="1" parent="1">
          <mxGeometry x="200" y="205" width="390" height="60" as="geometry" />
        </mxCell>
        <mxCell id="2yg5KASqGBkeXSeHkA1k-60" style="edgeStyle=orthogonalEdgeStyle;rounded=0;orthogonalLoop=1;jettySize=auto;html=1;entryX=0;entryY=0.5;entryDx=0;entryDy=0;" edge="1" parent="1" source="2yg5KASqGBkeXSeHkA1k-4" target="2yg5KASqGBkeXSeHkA1k-5">
          <mxGeometry relative="1" as="geometry" />
        </mxCell>
        <mxCell id="2yg5KASqGBkeXSeHkA1k-61" style="edgeStyle=orthogonalEdgeStyle;rounded=0;orthogonalLoop=1;jettySize=auto;html=1;entryX=0;entryY=0.25;entryDx=0;entryDy=0;" edge="1" parent="1" source="2yg5KASqGBkeXSeHkA1k-4" target="2yg5KASqGBkeXSeHkA1k-6">
          <mxGeometry relative="1" as="geometry" />
        </mxCell>
        <mxCell id="2yg5KASqGBkeXSeHkA1k-4" value="&lt;div style=&quot;background-color:#1e1f22;color:#bcbec4&quot;&gt;&lt;pre style=&quot;font-family:&#39;JetBrains Mono&#39;,monospace;font-size:9.8pt;&quot;&gt;self.app_mgr_container = ttk.Frame(&lt;br&gt;    master_window,&lt;/pre&gt;&lt;/div&gt;" style="rounded=1;whiteSpace=wrap;html=1;align=left;" vertex="1" parent="1">
          <mxGeometry x="240" y="310" width="260" height="50" as="geometry" />
        </mxCell>
        <mxCell id="2yg5KASqGBkeXSeHkA1k-25" style="edgeStyle=orthogonalEdgeStyle;rounded=0;orthogonalLoop=1;jettySize=auto;html=1;entryX=0;entryY=0.5;entryDx=0;entryDy=0;" edge="1" parent="1" source="2yg5KASqGBkeXSeHkA1k-5" target="2yg5KASqGBkeXSeHkA1k-7">
          <mxGeometry relative="1" as="geometry" />
        </mxCell>
        <mxCell id="2yg5KASqGBkeXSeHkA1k-5" value="&lt;div style=&quot;background-color:#1e1f22;color:#bcbec4&quot;&gt;&lt;pre style=&quot;font-family:&#39;JetBrains Mono&#39;,monospace;font-size:9.8pt;&quot;&gt;&lt;span style=&quot;font-size: 9.8pt; white-space: normal;&quot;&gt;self.app_mgr_create()&lt;/span&gt;&lt;br&gt;&lt;/pre&gt;&lt;/div&gt;" style="rounded=1;whiteSpace=wrap;html=1;align=left;" vertex="1" parent="1">
          <mxGeometry x="280" y="394" width="180" height="30" as="geometry" />
        </mxCell>
        <mxCell id="2yg5KASqGBkeXSeHkA1k-58" style="edgeStyle=orthogonalEdgeStyle;rounded=0;orthogonalLoop=1;jettySize=auto;html=1;" edge="1" parent="1" source="2yg5KASqGBkeXSeHkA1k-6" target="2yg5KASqGBkeXSeHkA1k-26">
          <mxGeometry relative="1" as="geometry" />
        </mxCell>
        <mxCell id="2yg5KASqGBkeXSeHkA1k-6" value="&lt;div style=&quot;background-color:#1e1f22;color:#bcbec4&quot;&gt;&lt;pre style=&quot;font-family:&#39;JetBrains Mono&#39;,monospace;font-size:9.8pt;&quot;&gt;self.nj_dashboard_create()&lt;br&gt;&lt;/pre&gt;&lt;/div&gt;" style="rounded=1;whiteSpace=wrap;html=1;align=left;" vertex="1" parent="1">
          <mxGeometry x="280" y="440" width="200" height="30" as="geometry" />
        </mxCell>
        <mxCell id="2yg5KASqGBkeXSeHkA1k-22" style="edgeStyle=orthogonalEdgeStyle;rounded=0;orthogonalLoop=1;jettySize=auto;html=1;entryX=0;entryY=0.75;entryDx=0;entryDy=0;" edge="1" parent="1" source="2yg5KASqGBkeXSeHkA1k-7" target="2yg5KASqGBkeXSeHkA1k-10">
          <mxGeometry relative="1" as="geometry" />
        </mxCell>
        <mxCell id="2yg5KASqGBkeXSeHkA1k-23" style="edgeStyle=orthogonalEdgeStyle;rounded=0;orthogonalLoop=1;jettySize=auto;html=1;entryX=0;entryY=0.5;entryDx=0;entryDy=0;" edge="1" parent="1" source="2yg5KASqGBkeXSeHkA1k-7" target="2yg5KASqGBkeXSeHkA1k-11">
          <mxGeometry relative="1" as="geometry" />
        </mxCell>
        <mxCell id="2yg5KASqGBkeXSeHkA1k-7" value="&lt;div style=&quot;background-color:#1e1f22;color:#bcbec4&quot;&gt;&lt;pre style=&quot;font-family:&#39;JetBrains Mono&#39;,monospace;font-size:9.8pt;&quot;&gt;def &lt;span style=&quot;color:#56a8f5;&quot;&gt;app_mgr_create&lt;/span&gt;(&lt;span style=&quot;color:#94558d;&quot;&gt;self&lt;/span&gt;):&lt;br&gt;    &lt;span style=&quot;color:#7a7e85;&quot;&gt;# ic(&#39;in app mgr create&#39;)&lt;br&gt;&lt;/span&gt;&lt;span style=&quot;color:#7a7e85;&quot;&gt;    &lt;/span&gt;&lt;span style=&quot;color:#94558d;&quot;&gt;self&lt;/span&gt;.app_mgr_sidebar = ttk.Frame(&lt;br&gt;        &lt;span style=&quot;color:#aa4926;&quot;&gt;master&lt;/span&gt;=&lt;span style=&quot;color:#94558d;&quot;&gt;self&lt;/span&gt;.app_mgr_container,&lt;/pre&gt;&lt;/div&gt;" style="rounded=1;whiteSpace=wrap;html=1;align=left;" vertex="1" parent="1">
          <mxGeometry x="760" y="60" width="280" height="80" as="geometry" />
        </mxCell>
        <mxCell id="2yg5KASqGBkeXSeHkA1k-13" style="edgeStyle=orthogonalEdgeStyle;rounded=0;orthogonalLoop=1;jettySize=auto;html=1;entryX=0;entryY=0.5;entryDx=0;entryDy=0;" edge="1" parent="1" source="2yg5KASqGBkeXSeHkA1k-10" target="2yg5KASqGBkeXSeHkA1k-12">
          <mxGeometry relative="1" as="geometry" />
        </mxCell>
        <mxCell id="2yg5KASqGBkeXSeHkA1k-10" value="&lt;div style=&quot;background-color:#1e1f22;color:#bcbec4&quot;&gt;&lt;pre style=&quot;font-family:&#39;JetBrains Mono&#39;,monospace;font-size:9.8pt;&quot;&gt;self.app_mgr_create_branding()&lt;br&gt;&lt;/pre&gt;&lt;/div&gt;" style="rounded=1;whiteSpace=wrap;html=1;" vertex="1" parent="1">
          <mxGeometry x="800" y="205" width="230" height="30" as="geometry" />
        </mxCell>
        <mxCell id="2yg5KASqGBkeXSeHkA1k-17" style="edgeStyle=orthogonalEdgeStyle;rounded=0;orthogonalLoop=1;jettySize=auto;html=1;" edge="1" parent="1" source="2yg5KASqGBkeXSeHkA1k-11" target="2yg5KASqGBkeXSeHkA1k-16">
          <mxGeometry relative="1" as="geometry" />
        </mxCell>
        <mxCell id="2yg5KASqGBkeXSeHkA1k-11" value="&lt;div style=&quot;background-color:#1e1f22;color:#bcbec4&quot;&gt;&lt;pre style=&quot;font-family:&#39;JetBrains Mono&#39;,monospace;font-size:9.8pt;&quot;&gt;self.app_mgr_create_controls()&lt;br&gt;&lt;/pre&gt;&lt;/div&gt;" style="rounded=1;whiteSpace=wrap;html=1;" vertex="1" parent="1">
          <mxGeometry x="800" y="250" width="230" height="30" as="geometry" />
        </mxCell>
        <mxCell id="2yg5KASqGBkeXSeHkA1k-15" style="edgeStyle=orthogonalEdgeStyle;rounded=0;orthogonalLoop=1;jettySize=auto;html=1;" edge="1" parent="1" source="2yg5KASqGBkeXSeHkA1k-12" target="2yg5KASqGBkeXSeHkA1k-14">
          <mxGeometry relative="1" as="geometry" />
        </mxCell>
        <mxCell id="2yg5KASqGBkeXSeHkA1k-12" value="&lt;div style=&quot;background-color:#1e1f22;color:#bcbec4&quot;&gt;&lt;pre style=&quot;font-family:&#39;JetBrains Mono&#39;,monospace;font-size:9.8pt;&quot;&gt;&lt;div&gt;&lt;pre style=&quot;font-family:&#39;JetBrains Mono&#39;,monospace;font-size:9.8pt;&quot;&gt;def &lt;span style=&quot;color:#56a8f5;&quot;&gt;app_mgr_create_branding&lt;/span&gt;(&lt;span style=&quot;color:#94558d;&quot;&gt;self&lt;/span&gt;):&lt;br&gt;    &lt;span style=&quot;color:#94558d;&quot;&gt;self&lt;/span&gt;.branding_container = ttk.Frame(&lt;br&gt;        &lt;span style=&quot;color:#aa4926;&quot;&gt;master&lt;/span&gt;=&lt;span style=&quot;color:#94558d;&quot;&gt;self&lt;/span&gt;.app_mgr_sidebar,&lt;/pre&gt;&lt;/div&gt;&lt;/pre&gt;&lt;/div&gt;" style="rounded=1;whiteSpace=wrap;html=1;align=left;" vertex="1" parent="1">
          <mxGeometry x="1120" y="145" width="300" height="60" as="geometry" />
        </mxCell>
        <mxCell id="2yg5KASqGBkeXSeHkA1k-14" value="&lt;div style=&quot;background-color:#1e1f22;color:#bcbec4&quot;&gt;&lt;pre style=&quot;font-family:&#39;JetBrains Mono&#39;,monospace;font-size:9.8pt;&quot;&gt;self.app_mgr_logo()&lt;/pre&gt;&lt;pre style=&quot;font-family:&#39;JetBrains Mono&#39;,monospace;font-size:9.8pt;&quot;&gt;&lt;div&gt;&lt;pre style=&quot;font-family:&#39;JetBrains Mono&#39;,monospace;font-size:9.8pt;&quot;&gt;   self.logo_widget = ttk.Label(&lt;br&gt;     &lt;span style=&quot;color:#aa4926;&quot;&gt;master&lt;/span&gt;=&lt;span style=&quot;color:#94558d;&quot;&gt;self&lt;/span&gt;.branding_container,&lt;/pre&gt;&lt;/div&gt;&lt;/pre&gt;&lt;/div&gt;" style="rounded=1;whiteSpace=wrap;html=1;align=left;" vertex="1" parent="1">
          <mxGeometry x="1486" y="137.5" width="260" height="75" as="geometry" />
        </mxCell>
        <mxCell id="2yg5KASqGBkeXSeHkA1k-19" style="edgeStyle=orthogonalEdgeStyle;rounded=0;orthogonalLoop=1;jettySize=auto;html=1;" edge="1" parent="1" source="2yg5KASqGBkeXSeHkA1k-16" target="2yg5KASqGBkeXSeHkA1k-18">
          <mxGeometry relative="1" as="geometry" />
        </mxCell>
        <mxCell id="2yg5KASqGBkeXSeHkA1k-16" value="&lt;div style=&quot;background-color:#1e1f22;color:#bcbec4&quot;&gt;&lt;pre style=&quot;font-family:&#39;JetBrains Mono&#39;,monospace;font-size:9.8pt;&quot;&gt;def &lt;span style=&quot;color:#56a8f5;&quot;&gt;app_mgr_create_controls&lt;/span&gt;(&lt;span style=&quot;color:#94558d;&quot;&gt;self&lt;/span&gt;):&lt;br&gt;    &lt;span style=&quot;color:#94558d;&quot;&gt;self&lt;/span&gt;.app_mgr_controls = ttk.Frame(&lt;/pre&gt;&lt;/div&gt;" style="rounded=1;whiteSpace=wrap;html=1;" vertex="1" parent="1">
          <mxGeometry x="1120" y="242" width="290" height="45" as="geometry" />
        </mxCell>
        <mxCell id="2yg5KASqGBkeXSeHkA1k-21" style="edgeStyle=orthogonalEdgeStyle;rounded=0;orthogonalLoop=1;jettySize=auto;html=1;entryX=0;entryY=0.5;entryDx=0;entryDy=0;" edge="1" parent="1" source="2yg5KASqGBkeXSeHkA1k-18" target="2yg5KASqGBkeXSeHkA1k-20">
          <mxGeometry relative="1" as="geometry" />
        </mxCell>
        <mxCell id="2yg5KASqGBkeXSeHkA1k-18" value="&lt;div style=&quot;background-color:#1e1f22;color:#bcbec4&quot;&gt;&lt;pre style=&quot;font-family:&#39;JetBrains Mono&#39;,monospace;font-size:9.8pt;&quot;&gt;self.app_mgr_create_buttonbox()&lt;br&gt;&lt;/pre&gt;&lt;/div&gt;" style="rounded=1;whiteSpace=wrap;html=1;" vertex="1" parent="1">
          <mxGeometry x="1486" y="247" width="240" height="35" as="geometry" />
        </mxCell>
        <mxCell id="2yg5KASqGBkeXSeHkA1k-40" style="edgeStyle=orthogonalEdgeStyle;rounded=0;orthogonalLoop=1;jettySize=auto;html=1;entryX=0;entryY=0.5;entryDx=0;entryDy=0;" edge="1" parent="1" source="2yg5KASqGBkeXSeHkA1k-20" target="2yg5KASqGBkeXSeHkA1k-38">
          <mxGeometry relative="1" as="geometry" />
        </mxCell>
        <mxCell id="2yg5KASqGBkeXSeHkA1k-20" value="&lt;div style=&quot;background-color:#1e1f22;color:#bcbec4&quot;&gt;&lt;pre style=&quot;font-family:&#39;JetBrains Mono&#39;,monospace;font-size:9.8pt;&quot;&gt;def &lt;span style=&quot;color:#56a8f5;&quot;&gt;app_mgr_create_buttonbox&lt;/span&gt;(&lt;span style=&quot;color:#94558d;&quot;&gt;self&lt;/span&gt;):&lt;br&gt;    &lt;span style=&quot;color:#94558d;&quot;&gt;self&lt;/span&gt;.button_container = ttk.Frame(&lt;br&gt;        &lt;span style=&quot;color:#94558d;&quot;&gt;self&lt;/span&gt;.app_mgr_controls,&lt;/pre&gt;&lt;/div&gt;" style="rounded=1;whiteSpace=wrap;html=1;" vertex="1" parent="1">
          <mxGeometry x="1830" y="233" width="290" height="62.5" as="geometry" />
        </mxCell>
        <mxCell id="2yg5KASqGBkeXSeHkA1k-53" style="edgeStyle=orthogonalEdgeStyle;rounded=0;orthogonalLoop=1;jettySize=auto;html=1;entryX=0;entryY=0.5;entryDx=0;entryDy=0;" edge="1" parent="1" source="2yg5KASqGBkeXSeHkA1k-26" target="2yg5KASqGBkeXSeHkA1k-27">
          <mxGeometry relative="1" as="geometry" />
        </mxCell>
        <mxCell id="2yg5KASqGBkeXSeHkA1k-54" style="edgeStyle=orthogonalEdgeStyle;rounded=0;orthogonalLoop=1;jettySize=auto;html=1;entryX=0;entryY=0.5;entryDx=0;entryDy=0;" edge="1" parent="1" source="2yg5KASqGBkeXSeHkA1k-26" target="2yg5KASqGBkeXSeHkA1k-28">
          <mxGeometry relative="1" as="geometry" />
        </mxCell>
        <mxCell id="2yg5KASqGBkeXSeHkA1k-110" style="edgeStyle=orthogonalEdgeStyle;rounded=0;orthogonalLoop=1;jettySize=auto;html=1;entryX=0;entryY=0.75;entryDx=0;entryDy=0;exitX=0;exitY=0.5;exitDx=0;exitDy=0;" edge="1" parent="1" source="2yg5KASqGBkeXSeHkA1k-30" target="2yg5KASqGBkeXSeHkA1k-29">
          <mxGeometry relative="1" as="geometry" />
        </mxCell>
        <mxCell id="2yg5KASqGBkeXSeHkA1k-111" style="edgeStyle=orthogonalEdgeStyle;rounded=0;orthogonalLoop=1;jettySize=auto;html=1;entryX=0;entryY=0.75;entryDx=0;entryDy=0;" edge="1" parent="1" source="2yg5KASqGBkeXSeHkA1k-26" target="2yg5KASqGBkeXSeHkA1k-29">
          <mxGeometry relative="1" as="geometry" />
        </mxCell>
        <mxCell id="2yg5KASqGBkeXSeHkA1k-26" value="&lt;div style=&quot;background-color: rgb(30, 31, 34);&quot;&gt;&lt;pre style=&quot;&quot;&gt;&lt;div style=&quot;text-align: left;&quot;&gt;&lt;font face=&quot;JetBrains Mono, monospace&quot; color=&quot;#bcbec4&quot;&gt;&lt;span style=&quot;font-size: 13.0667px;&quot;&gt;&lt;br&gt;&lt;/span&gt;&lt;/font&gt;&lt;/div&gt;&lt;font face=&quot;JetBrains Mono, monospace&quot; color=&quot;#bcbec4&quot;&gt;&lt;div style=&quot;text-align: left;&quot;&gt;&lt;font style=&quot;white-space: normal;&quot; face=&quot;JetBrains Mono, monospace&quot; color=&quot;#bcbec4&quot;&gt;&lt;span style=&quot;font-size: 9.8pt;&quot;&gt;def &lt;/span&gt;&lt;/font&gt;&lt;span style=&quot;white-space: normal; color: rgb(86, 168, 245); font-size: 9.8pt;&quot;&gt;nj_dashboard_create&lt;/span&gt;&lt;font style=&quot;white-space: normal;&quot; face=&quot;JetBrains Mono, monospace&quot; color=&quot;#bcbec4&quot;&gt;&lt;span style=&quot;font-size: 9.8pt;&quot;&gt;(&lt;/span&gt;&lt;/font&gt;&lt;span style=&quot;white-space: normal; color: rgb(148, 85, 141); font-size: 9.8pt;&quot;&gt;self&lt;/span&gt;&lt;font style=&quot;white-space: normal;&quot; face=&quot;JetBrains Mono, monospace&quot; color=&quot;#bcbec4&quot;&gt;&lt;span style=&quot;font-size: 9.8pt;&quot;&gt;):&lt;/span&gt;&lt;/font&gt;&lt;/div&gt;&lt;/font&gt;&lt;font face=&quot;JetBrains Mono, monospace&quot; color=&quot;#bcbec4&quot;&gt;&lt;span style=&quot;font-size: 9.8pt;&quot;&gt;    &lt;/span&gt;&lt;/font&gt;&lt;span style=&quot;color: rgb(148, 85, 141); font-family: &amp;quot;JetBrains Mono&amp;quot;, monospace; font-size: 9.8pt;&quot;&gt;self&lt;/span&gt;&lt;font face=&quot;JetBrains Mono, monospace&quot; color=&quot;#bcbec4&quot;&gt;&lt;span style=&quot;font-size: 9.8pt;&quot;&gt;.nj_dash_0 = ttk.Frame(&lt;br&gt;        &lt;/span&gt;&lt;/font&gt;&lt;span style=&quot;color: rgb(148, 85, 141); font-family: &amp;quot;JetBrains Mono&amp;quot;, monospace; font-size: 9.8pt;&quot;&gt;self&lt;/span&gt;&lt;font face=&quot;JetBrains Mono, monospace&quot; color=&quot;#bcbec4&quot;&gt;&lt;span style=&quot;font-size: 9.8pt;&quot;&gt;.app_mgr_container,&lt;/span&gt;&lt;/font&gt;&lt;/pre&gt;&lt;/div&gt;" style="rounded=1;whiteSpace=wrap;html=1;" vertex="1" parent="1">
          <mxGeometry x="760" y="417.5" width="240" height="75" as="geometry" />
        </mxCell>
        <mxCell id="2yg5KASqGBkeXSeHkA1k-57" style="edgeStyle=orthogonalEdgeStyle;rounded=0;orthogonalLoop=1;jettySize=auto;html=1;" edge="1" parent="1" source="2yg5KASqGBkeXSeHkA1k-27" target="2yg5KASqGBkeXSeHkA1k-31">
          <mxGeometry relative="1" as="geometry" />
        </mxCell>
        <mxCell id="2yg5KASqGBkeXSeHkA1k-27" value="&lt;div style=&quot;background-color:#1e1f22;color:#bcbec4&quot;&gt;&lt;pre style=&quot;font-family:&#39;JetBrains Mono&#39;,monospace;font-size:9.8pt;&quot;&gt;self.nj_dashboard_header()&lt;br&gt;&lt;/pre&gt;&lt;/div&gt;" style="rounded=1;whiteSpace=wrap;html=1;align=left;" vertex="1" parent="1">
          <mxGeometry x="810" y="542" width="200" height="30" as="geometry" />
        </mxCell>
        <mxCell id="2yg5KASqGBkeXSeHkA1k-35" style="edgeStyle=orthogonalEdgeStyle;rounded=0;orthogonalLoop=1;jettySize=auto;html=1;entryX=0;entryY=0.5;entryDx=0;entryDy=0;" edge="1" parent="1" source="2yg5KASqGBkeXSeHkA1k-28" target="2yg5KASqGBkeXSeHkA1k-32">
          <mxGeometry relative="1" as="geometry" />
        </mxCell>
        <mxCell id="2yg5KASqGBkeXSeHkA1k-28" value="&lt;div style=&quot;background-color:#1e1f22;color:#bcbec4&quot;&gt;&lt;pre style=&quot;font-family:&#39;JetBrains Mono&#39;,monospace;font-size:9.8pt;&quot;&gt;self.nj_dashboard_top_bar()&lt;br&gt;&lt;/pre&gt;&lt;/div&gt;" style="rounded=1;whiteSpace=wrap;html=1;align=left;" vertex="1" parent="1">
          <mxGeometry x="810" y="691" width="200" height="30" as="geometry" />
        </mxCell>
        <mxCell id="2yg5KASqGBkeXSeHkA1k-114" style="edgeStyle=orthogonalEdgeStyle;rounded=0;orthogonalLoop=1;jettySize=auto;html=1;" edge="1" parent="1" source="2yg5KASqGBkeXSeHkA1k-29" target="2yg5KASqGBkeXSeHkA1k-112">
          <mxGeometry relative="1" as="geometry" />
        </mxCell>
        <mxCell id="2yg5KASqGBkeXSeHkA1k-29" value="&lt;div style=&quot;background-color:#1e1f22;color:#bcbec4&quot;&gt;&lt;pre style=&quot;font-family:&#39;JetBrains Mono&#39;,monospace;font-size:9.8pt;&quot;&gt;self.nj_dashboard_main()&lt;br&gt;&lt;/pre&gt;&lt;/div&gt;" style="rounded=1;whiteSpace=wrap;html=1;align=left;" vertex="1" parent="1">
          <mxGeometry x="810" y="2285" width="200" height="18" as="geometry" />
        </mxCell>
        <mxCell id="2yg5KASqGBkeXSeHkA1k-133" style="edgeStyle=orthogonalEdgeStyle;rounded=0;orthogonalLoop=1;jettySize=auto;html=1;" edge="1" parent="1" source="2yg5KASqGBkeXSeHkA1k-30" target="2yg5KASqGBkeXSeHkA1k-121">
          <mxGeometry relative="1" as="geometry" />
        </mxCell>
        <mxCell id="2yg5KASqGBkeXSeHkA1k-30" value="&lt;div style=&quot;background-color:#1e1f22;color:#bcbec4&quot;&gt;&lt;pre style=&quot;font-family:&#39;JetBrains Mono&#39;,monospace;font-size:9.8pt;&quot;&gt;self.nj_dashboard_bottom_bar()&lt;br&gt;&lt;/pre&gt;&lt;/div&gt;" style="rounded=1;whiteSpace=wrap;html=1;align=left;" vertex="1" parent="1">
          <mxGeometry x="810" y="2630" width="230" height="30" as="geometry" />
        </mxCell>
        <mxCell id="2yg5KASqGBkeXSeHkA1k-31" value="&lt;div style=&quot;background-color: rgb(30, 31, 34);&quot;&gt;&lt;pre style=&quot;&quot;&gt;&lt;div style=&quot;text-align: left;&quot;&gt;&lt;font style=&quot;color: rgb(188, 190, 196); font-family: &amp;quot;JetBrains Mono&amp;quot;, monospace; white-space: normal;&quot; face=&quot;JetBrains Mono, monospace&quot; color=&quot;#bcbec4&quot;&gt;&lt;span style=&quot;font-size: 9.8pt;&quot;&gt;def &lt;/span&gt;&lt;/font&gt;&lt;span style=&quot;font-family: &amp;quot;JetBrains Mono&amp;quot;, monospace; white-space: normal; color: rgb(86, 168, 245); font-size: 9.8pt;&quot;&gt;nj_dashboard_header&lt;/span&gt;&lt;font style=&quot;color: rgb(188, 190, 196); font-family: &amp;quot;JetBrains Mono&amp;quot;, monospace; white-space: normal;&quot; face=&quot;JetBrains Mono, monospace&quot; color=&quot;#bcbec4&quot;&gt;&lt;span style=&quot;font-size: 9.8pt;&quot;&gt;(&lt;/span&gt;&lt;/font&gt;&lt;span style=&quot;font-family: &amp;quot;JetBrains Mono&amp;quot;, monospace; white-space: normal; color: rgb(148, 85, 141); font-size: 9.8pt;&quot;&gt;self&lt;/span&gt;&lt;font style=&quot;color: rgb(188, 190, 196); font-family: &amp;quot;JetBrains Mono&amp;quot;, monospace; white-space: normal;&quot; face=&quot;JetBrains Mono, monospace&quot; color=&quot;#bcbec4&quot;&gt;&lt;span style=&quot;font-size: 9.8pt;&quot;&gt;):&lt;/span&gt;&lt;/font&gt;&lt;br&gt;&lt;/div&gt;&lt;font face=&quot;JetBrains Mono, monospace&quot; color=&quot;#bcbec4&quot;&gt;&lt;span style=&quot;font-size: 9.8pt;&quot;&gt;    &lt;/span&gt;&lt;/font&gt;&lt;span style=&quot;color: rgb(148, 85, 141); font-family: &amp;quot;JetBrains Mono&amp;quot;, monospace; font-size: 9.8pt;&quot;&gt;self&lt;/span&gt;&lt;font face=&quot;JetBrains Mono, monospace&quot; color=&quot;#bcbec4&quot;&gt;&lt;span style=&quot;font-size: 9.8pt;&quot;&gt;.nj_dashboard_header = ttk.Frame(&lt;br&gt;        &lt;/span&gt;&lt;/font&gt;&lt;span style=&quot;color: rgb(170, 73, 38); font-family: &amp;quot;JetBrains Mono&amp;quot;, monospace; font-size: 9.8pt;&quot;&gt;master&lt;/span&gt;&lt;font face=&quot;JetBrains Mono, monospace&quot; color=&quot;#bcbec4&quot;&gt;&lt;span style=&quot;font-size: 9.8pt;&quot;&gt;=&lt;/span&gt;&lt;/font&gt;&lt;span style=&quot;color: rgb(148, 85, 141); font-family: &amp;quot;JetBrains Mono&amp;quot;, monospace; font-size: 9.8pt;&quot;&gt;self&lt;/span&gt;&lt;font face=&quot;JetBrains Mono, monospace&quot; color=&quot;#bcbec4&quot;&gt;&lt;span style=&quot;font-size: 9.8pt;&quot;&gt;.nj_dash_0,&lt;/span&gt;&lt;/font&gt;&lt;/pre&gt;&lt;/div&gt;" style="rounded=1;whiteSpace=wrap;html=1;" vertex="1" parent="1">
          <mxGeometry x="1130" y="530" width="310" height="55" as="geometry" />
        </mxCell>
        <mxCell id="2yg5KASqGBkeXSeHkA1k-36" style="edgeStyle=orthogonalEdgeStyle;rounded=0;orthogonalLoop=1;jettySize=auto;html=1;entryX=0;entryY=0.5;entryDx=0;entryDy=0;" edge="1" parent="1" source="2yg5KASqGBkeXSeHkA1k-32" target="2yg5KASqGBkeXSeHkA1k-33">
          <mxGeometry relative="1" as="geometry" />
        </mxCell>
        <mxCell id="2yg5KASqGBkeXSeHkA1k-63" style="edgeStyle=orthogonalEdgeStyle;rounded=0;orthogonalLoop=1;jettySize=auto;html=1;entryX=0;entryY=0.5;entryDx=0;entryDy=0;" edge="1" parent="1" source="2yg5KASqGBkeXSeHkA1k-32" target="2yg5KASqGBkeXSeHkA1k-62">
          <mxGeometry relative="1" as="geometry" />
        </mxCell>
        <mxCell id="2yg5KASqGBkeXSeHkA1k-88" style="edgeStyle=orthogonalEdgeStyle;rounded=0;orthogonalLoop=1;jettySize=auto;html=1;entryX=0;entryY=0.5;entryDx=0;entryDy=0;" edge="1" parent="1" source="2yg5KASqGBkeXSeHkA1k-32" target="2yg5KASqGBkeXSeHkA1k-80">
          <mxGeometry relative="1" as="geometry" />
        </mxCell>
        <mxCell id="2yg5KASqGBkeXSeHkA1k-32" value="&lt;div style=&quot;background-color: rgb(30, 31, 34);&quot;&gt;&lt;pre style=&quot;&quot;&gt;&lt;div style=&quot;text-align: left;&quot;&gt;&lt;font face=&quot;JetBrains Mono, monospace&quot; color=&quot;#bcbec4&quot;&gt;&lt;span style=&quot;font-size: 13.0667px;&quot;&gt;&lt;br&gt;&lt;/span&gt;&lt;/font&gt;&lt;/div&gt;&lt;font face=&quot;JetBrains Mono, monospace&quot; color=&quot;#bcbec4&quot;&gt;&lt;div style=&quot;text-align: left;&quot;&gt;&lt;font style=&quot;&quot; face=&quot;JetBrains Mono, monospace&quot; color=&quot;#bcbec4&quot;&gt;&lt;span style=&quot;font-size: 9.8pt;&quot;&gt;def &lt;/span&gt;&lt;/font&gt;&lt;span style=&quot;color: rgb(86, 168, 245); font-size: 9.8pt;&quot;&gt;nj_dashboard_top_bar&lt;/span&gt;&lt;font style=&quot;&quot; face=&quot;JetBrains Mono, monospace&quot; color=&quot;#bcbec4&quot;&gt;&lt;span style=&quot;font-size: 9.8pt;&quot;&gt;(&lt;/span&gt;&lt;/font&gt;&lt;span style=&quot;color: rgb(148, 85, 141); font-size: 9.8pt;&quot;&gt;self&lt;/span&gt;&lt;font style=&quot;&quot; face=&quot;JetBrains Mono, monospace&quot; color=&quot;#bcbec4&quot;&gt;&lt;span style=&quot;font-size: 9.8pt;&quot;&gt;):&lt;/span&gt;&lt;/font&gt;&lt;/div&gt;&lt;/font&gt;&lt;font face=&quot;JetBrains Mono, monospace&quot; color=&quot;#bcbec4&quot;&gt;&lt;span style=&quot;font-size: 9.8pt;&quot;&gt;    &lt;/span&gt;&lt;/font&gt;&lt;span style=&quot;color: rgb(148, 85, 141); font-family: &amp;quot;JetBrains Mono&amp;quot;, monospace; font-size: 9.8pt;&quot;&gt;self&lt;/span&gt;&lt;font face=&quot;JetBrains Mono, monospace&quot; color=&quot;#bcbec4&quot;&gt;&lt;span style=&quot;font-size: 9.8pt;&quot;&gt;.pn_top_bar = ttk.Frame(&lt;br&gt;        &lt;/span&gt;&lt;/font&gt;&lt;span style=&quot;color: rgb(170, 73, 38); font-family: &amp;quot;JetBrains Mono&amp;quot;, monospace; font-size: 9.8pt;&quot;&gt;master&lt;/span&gt;&lt;font face=&quot;JetBrains Mono, monospace&quot; color=&quot;#bcbec4&quot;&gt;&lt;span style=&quot;font-size: 9.8pt;&quot;&gt;=&lt;/span&gt;&lt;/font&gt;&lt;span style=&quot;color: rgb(148, 85, 141); font-family: &amp;quot;JetBrains Mono&amp;quot;, monospace; font-size: 9.8pt;&quot;&gt;self&lt;/span&gt;&lt;font face=&quot;JetBrains Mono, monospace&quot; color=&quot;#bcbec4&quot;&gt;&lt;span style=&quot;font-size: 9.8pt;&quot;&gt;.nj_dash_0,&lt;/span&gt;&lt;/font&gt;&lt;/pre&gt;&lt;pre style=&quot;text-align: left;&quot;&gt;&lt;div style=&quot;color: rgb(188, 190, 196);&quot;&gt;&lt;pre style=&quot;font-family:&#39;JetBrains Mono&#39;,monospace;font-size:9.8pt;&quot;&gt;&lt;span style=&quot;&quot;&gt;&lt;span style=&quot;white-space: pre;&quot;&gt;&amp;nbsp;&amp;nbsp;&amp;nbsp;&amp;nbsp;&lt;/span&gt;&lt;/span&gt;self.dashboard_operations = ttk.Frame(&lt;br&gt;    &lt;span style=&quot;&quot;&gt;&lt;span style=&quot;white-space: pre;&quot;&gt;&amp;nbsp;&amp;nbsp;&amp;nbsp;&amp;nbsp;&lt;/span&gt;&lt;/span&gt;&lt;span style=&quot;&quot;&gt;&lt;span style=&quot;white-space: pre;&quot;&gt;&amp;nbsp;&amp;nbsp;&amp;nbsp;&amp;nbsp;&lt;/span&gt;&lt;/span&gt;&lt;span style=&quot;color:#aa4926;&quot;&gt;master&lt;/span&gt;=&lt;span style=&quot;color:#94558d;&quot;&gt;self&lt;/span&gt;.pn_top_bar,&lt;/pre&gt;&lt;pre style=&quot;font-family:&#39;JetBrains Mono&#39;,monospace;font-size:9.8pt;&quot;&gt;&lt;div&gt;&lt;pre style=&quot;font-family:&#39;JetBrains Mono&#39;,monospace;font-size:9.8pt;&quot;&gt;&lt;span style=&quot;white-space: pre;&quot;&gt;&#x9;&lt;/span&gt;button_0 = ttk.Button(&lt;br&gt;    &lt;span style=&quot;white-space: pre;&quot;&gt;&#x9;&lt;/span&gt;&lt;span style=&quot;white-space: pre;&quot;&gt;&#x9;&lt;/span&gt;master=&lt;span style=&quot;color:#94558d;&quot;&gt;self&lt;/span&gt;.dashboard_operations,&lt;/pre&gt;&lt;/div&gt;&lt;/pre&gt;&lt;/div&gt;&lt;/pre&gt;&lt;/div&gt;" style="rounded=1;whiteSpace=wrap;html=1;" vertex="1" parent="1">
          <mxGeometry x="1130" y="620" width="370" height="170" as="geometry" />
        </mxCell>
        <mxCell id="2yg5KASqGBkeXSeHkA1k-42" style="edgeStyle=orthogonalEdgeStyle;rounded=0;orthogonalLoop=1;jettySize=auto;html=1;" edge="1" parent="1" source="2yg5KASqGBkeXSeHkA1k-33" target="2yg5KASqGBkeXSeHkA1k-37">
          <mxGeometry relative="1" as="geometry" />
        </mxCell>
        <mxCell id="2yg5KASqGBkeXSeHkA1k-33" value="&lt;div style=&quot;background-color: rgb(30, 31, 34);&quot;&gt;&lt;pre style=&quot;&quot;&gt;&lt;div style=&quot;&quot;&gt;&lt;font face=&quot;JetBrains Mono, monospace&quot; color=&quot;#bcbec4&quot;&gt;&lt;span style=&quot;font-size: 13.0667px;&quot;&gt;&lt;br&gt;&lt;/span&gt;&lt;/font&gt;&lt;/div&gt;&lt;font face=&quot;JetBrains Mono, monospace&quot; color=&quot;#bcbec4&quot;&gt;&lt;span style=&quot;font-size: 9.8pt;&quot;&gt;button_0 = ttk.Button(&lt;br&gt;    master=&lt;/span&gt;&lt;/font&gt;&lt;span style=&quot;color: rgb(148, 85, 141); font-family: &amp;quot;JetBrains Mono&amp;quot;, monospace; font-size: 9.8pt;&quot;&gt;self&lt;/span&gt;&lt;font face=&quot;JetBrains Mono, monospace&quot; color=&quot;#bcbec4&quot;&gt;&lt;span style=&quot;font-size: 9.8pt;&quot;&gt;.dashboard_operations,&lt;br&gt;    &lt;/span&gt;&lt;/font&gt;&lt;span style=&quot;color: rgb(170, 73, 38); font-family: &amp;quot;JetBrains Mono&amp;quot;, monospace; font-size: 9.8pt;&quot;&gt;text&lt;/span&gt;&lt;font face=&quot;JetBrains Mono, monospace&quot; color=&quot;#bcbec4&quot;&gt;&lt;span style=&quot;font-size: 9.8pt;&quot;&gt;=&lt;/span&gt;&lt;/font&gt;&lt;span style=&quot;color: rgb(106, 171, 115); font-family: &amp;quot;JetBrains Mono&amp;quot;, monospace; font-size: 9.8pt;&quot;&gt;&#39;Load PDF File&#39;&lt;/span&gt;&lt;font face=&quot;JetBrains Mono, monospace&quot; color=&quot;#bcbec4&quot;&gt;&lt;span style=&quot;font-size: 9.8pt;&quot;&gt;,&lt;br&gt;    &lt;/span&gt;&lt;/font&gt;&lt;span style=&quot;color: rgb(170, 73, 38); font-family: &amp;quot;JetBrains Mono&amp;quot;, monospace; font-size: 9.8pt;&quot;&gt;style&lt;/span&gt;&lt;font face=&quot;JetBrains Mono, monospace&quot; color=&quot;#bcbec4&quot;&gt;&lt;span style=&quot;font-size: 9.8pt;&quot;&gt;=PRIMARY,&lt;br&gt;    &lt;/span&gt;&lt;/font&gt;&lt;span style=&quot;color: rgb(170, 73, 38); font-family: &amp;quot;JetBrains Mono&amp;quot;, monospace; font-size: 9.8pt;&quot;&gt;cursor&lt;/span&gt;&lt;font face=&quot;JetBrains Mono, monospace&quot; color=&quot;#bcbec4&quot;&gt;&lt;span style=&quot;font-size: 9.8pt;&quot;&gt;=&lt;/span&gt;&lt;/font&gt;&lt;span style=&quot;color: rgb(106, 171, 115); font-family: &amp;quot;JetBrains Mono&amp;quot;, monospace; font-size: 9.8pt;&quot;&gt;&#39;hand2&#39;&lt;/span&gt;&lt;font face=&quot;JetBrains Mono, monospace&quot; color=&quot;#bcbec4&quot;&gt;&lt;span style=&quot;font-size: 9.8pt;&quot;&gt;,&lt;br&gt;    &lt;/span&gt;&lt;/font&gt;&lt;span style=&quot;color: rgb(170, 73, 38); font-family: &amp;quot;JetBrains Mono&amp;quot;, monospace; font-size: 9.8pt;&quot;&gt;command&lt;/span&gt;&lt;font face=&quot;JetBrains Mono, monospace&quot; color=&quot;#bcbec4&quot;&gt;&lt;span style=&quot;font-size: 9.8pt;&quot;&gt;=&lt;/span&gt;&lt;/font&gt;&lt;span style=&quot;color: rgb(207, 142, 109); font-family: &amp;quot;JetBrains Mono&amp;quot;, monospace; font-size: 9.8pt;&quot;&gt;lambda&lt;/span&gt;&lt;font face=&quot;JetBrains Mono, monospace&quot; color=&quot;#bcbec4&quot;&gt;&lt;span style=&quot;font-size: 9.8pt;&quot;&gt;: &lt;/span&gt;&lt;/font&gt;&lt;span style=&quot;color: rgb(148, 85, 141); font-family: &amp;quot;JetBrains Mono&amp;quot;, monospace; font-size: 9.8pt;&quot;&gt;self&lt;/span&gt;&lt;font face=&quot;JetBrains Mono, monospace&quot; color=&quot;#bcbec4&quot;&gt;&lt;span style=&quot;font-size: 9.8pt;&quot;&gt;.load_pdf_file(),&lt;br&gt;)&lt;/span&gt;&lt;/font&gt;&lt;/pre&gt;&lt;/div&gt;" style="shape=process;whiteSpace=wrap;html=1;backgroundOutline=1;align=left;" vertex="1" parent="1">
          <mxGeometry x="1200" y="820" width="380" height="140" as="geometry" />
        </mxCell>
        <mxCell id="2yg5KASqGBkeXSeHkA1k-44" style="edgeStyle=orthogonalEdgeStyle;rounded=0;orthogonalLoop=1;jettySize=auto;html=1;" edge="1" parent="1" source="2yg5KASqGBkeXSeHkA1k-34" target="2yg5KASqGBkeXSeHkA1k-43">
          <mxGeometry relative="1" as="geometry" />
        </mxCell>
        <mxCell id="2yg5KASqGBkeXSeHkA1k-34" value="&lt;div style=&quot;background-color:#1e1f22;color:#bcbec4&quot;&gt;&lt;pre style=&quot;font-family:&#39;JetBrains Mono&#39;,monospace;font-size:9.8pt;&quot;&gt;&lt;br&gt;button_1 = ttk.Button(&lt;br&gt;    master=&lt;span style=&quot;color:#94558d;&quot;&gt;self&lt;/span&gt;.dashboard_operations,&lt;br&gt;    &lt;span style=&quot;color:#aa4926;&quot;&gt;text&lt;/span&gt;=&lt;span style=&quot;color:#6aab73;&quot;&gt;&#39;Generate PDF Pages&#39;&lt;/span&gt;,&lt;br&gt;    &lt;span style=&quot;color:#aa4926;&quot;&gt;style&lt;/span&gt;=PRIMARY,&lt;br&gt;    &lt;span style=&quot;color:#aa4926;&quot;&gt;cursor&lt;/span&gt;=&lt;span style=&quot;color:#6aab73;&quot;&gt;&#39;hand2&#39;&lt;/span&gt;,&lt;br&gt;    &lt;span style=&quot;color:#aa4926;&quot;&gt;command&lt;/span&gt;=&lt;span style=&quot;color:#cf8e6d;&quot;&gt;lambda&lt;/span&gt;: &lt;span style=&quot;color:#94558d;&quot;&gt;self&lt;/span&gt;.gen_pdf_pages_from_all_infiles(),&lt;br&gt;)&lt;/pre&gt;&lt;/div&gt;" style="shape=process;whiteSpace=wrap;html=1;backgroundOutline=1;align=left;" vertex="1" parent="1">
          <mxGeometry x="1200" y="976" width="540" height="140" as="geometry" />
        </mxCell>
        <mxCell id="2yg5KASqGBkeXSeHkA1k-37" value="&lt;div style=&quot;background-color:#1e1f22;color:#bcbec4&quot;&gt;&lt;pre style=&quot;font-family:&#39;JetBrains Mono&#39;,monospace;font-size:9.8pt;&quot;&gt;def &lt;span style=&quot;color:#56a8f5;&quot;&gt;load_pdf_file&lt;/span&gt;(&lt;span style=&quot;color:#94558d;&quot;&gt;self&lt;/span&gt;):&lt;br&gt;&lt;/pre&gt;&lt;/div&gt;" style="rounded=1;whiteSpace=wrap;html=1;align=left;" vertex="1" parent="1">
          <mxGeometry x="1967" y="876" width="190" height="30" as="geometry" />
        </mxCell>
        <mxCell id="2yg5KASqGBkeXSeHkA1k-41" style="edgeStyle=orthogonalEdgeStyle;rounded=0;orthogonalLoop=1;jettySize=auto;html=1;" edge="1" parent="1" source="2yg5KASqGBkeXSeHkA1k-38" target="2yg5KASqGBkeXSeHkA1k-39">
          <mxGeometry relative="1" as="geometry" />
        </mxCell>
        <mxCell id="2yg5KASqGBkeXSeHkA1k-38" value="&lt;div style=&quot;background-color:#1e1f22;color:#bcbec4&quot;&gt;&lt;pre style=&quot;font-family:&#39;JetBrains Mono&#39;,monospace;font-size:9.8pt;&quot;&gt;&lt;br&gt;cancel_btn = ttk.Button(&lt;br&gt;    master=&lt;span style=&quot;color:#94558d;&quot;&gt;self&lt;/span&gt;.button_container,&lt;br&gt;    &lt;span style=&quot;color:#aa4926;&quot;&gt;text&lt;/span&gt;=&lt;span style=&quot;color:#6aab73;&quot;&gt;&#39;Cancel&#39;&lt;/span&gt;,&lt;br&gt;    &lt;span style=&quot;color:#aa4926;&quot;&gt;command&lt;/span&gt;=&lt;span style=&quot;color:#94558d;&quot;&gt;self&lt;/span&gt;.app_mgr_on_cancel,&lt;/pre&gt;&lt;/div&gt;" style="shape=process;whiteSpace=wrap;html=1;backgroundOutline=1;align=left;" vertex="1" parent="1">
          <mxGeometry x="1880" y="330" width="330" height="90" as="geometry" />
        </mxCell>
        <mxCell id="2yg5KASqGBkeXSeHkA1k-39" value="&lt;div style=&quot;background-color:#1e1f22;color:#bcbec4&quot;&gt;&lt;pre style=&quot;font-family:&#39;JetBrains Mono&#39;,monospace;font-size:9.8pt;&quot;&gt;def &lt;span style=&quot;color:#56a8f5;&quot;&gt;app_mgr_on_cancel&lt;/span&gt;(&lt;span style=&quot;color:#94558d;&quot;&gt;self&lt;/span&gt;):&lt;br&gt;    &lt;span style=&quot;color:#94558d;&quot;&gt;self&lt;/span&gt;.quit()&lt;/pre&gt;&lt;/div&gt;" style="rounded=1;whiteSpace=wrap;html=1;align=left;" vertex="1" parent="1">
          <mxGeometry x="2280" y="352.5" width="210" height="45" as="geometry" />
        </mxCell>
        <mxCell id="2yg5KASqGBkeXSeHkA1k-46" style="edgeStyle=orthogonalEdgeStyle;rounded=0;orthogonalLoop=1;jettySize=auto;html=1;entryX=0;entryY=0.5;entryDx=0;entryDy=0;" edge="1" parent="1" source="2yg5KASqGBkeXSeHkA1k-32" target="2yg5KASqGBkeXSeHkA1k-34">
          <mxGeometry relative="1" as="geometry">
            <mxPoint x="1180" y="1130" as="targetPoint" />
            <Array as="points">
              <mxPoint x="1180" y="960" />
              <mxPoint x="1181" y="1060" />
            </Array>
          </mxGeometry>
        </mxCell>
        <mxCell id="2yg5KASqGBkeXSeHkA1k-47" value="" style="group" connectable="0" vertex="1" parent="1">
          <mxGeometry x="1967" y="1016" width="310" height="60" as="geometry" />
        </mxCell>
        <mxCell id="2yg5KASqGBkeXSeHkA1k-43" value="&lt;div style=&quot;background-color:#1e1f22;color:#bcbec4&quot;&gt;&lt;pre style=&quot;font-family:&#39;JetBrains Mono&#39;,monospace;font-size:9.8pt;&quot;&gt;def &lt;span style=&quot;color:#56a8f5;&quot;&gt;gen_pdf_pages_from_all_infiles&lt;/span&gt;(&lt;span style=&quot;color:#94558d;&quot;&gt;self&lt;/span&gt;):&lt;br&gt;&lt;/pre&gt;&lt;/div&gt;" style="rounded=1;whiteSpace=wrap;html=1;align=left;" vertex="1" parent="2yg5KASqGBkeXSeHkA1k-47">
          <mxGeometry y="15" width="310" height="30" as="geometry" />
        </mxCell>
        <mxCell id="2yg5KASqGBkeXSeHkA1k-45" value="## TODO: specify the specific combo" style="text;html=1;strokeColor=none;fillColor=none;align=left;verticalAlign=middle;whiteSpace=wrap;rounded=0;" vertex="1" parent="2yg5KASqGBkeXSeHkA1k-47">
          <mxGeometry width="230" height="30" as="geometry" />
        </mxCell>
        <mxCell id="2yg5KASqGBkeXSeHkA1k-65" style="edgeStyle=orthogonalEdgeStyle;rounded=0;orthogonalLoop=1;jettySize=auto;html=1;" edge="1" parent="1" source="2yg5KASqGBkeXSeHkA1k-62" target="2yg5KASqGBkeXSeHkA1k-64">
          <mxGeometry relative="1" as="geometry" />
        </mxCell>
        <mxCell id="2yg5KASqGBkeXSeHkA1k-62" value="&lt;div style=&quot;background-color: rgb(30, 31, 34);&quot;&gt;&lt;pre style=&quot;&quot;&gt;&lt;div style=&quot;&quot;&gt;&lt;font face=&quot;JetBrains Mono, monospace&quot; color=&quot;#bcbec4&quot;&gt;&lt;span style=&quot;font-size: 13.0667px;&quot;&gt;&lt;br&gt;&lt;/span&gt;&lt;/font&gt;&lt;/div&gt;&lt;font face=&quot;JetBrains Mono, monospace&quot; color=&quot;#bcbec4&quot;&gt;&lt;span style=&quot;font-size: 9.8pt;&quot;&gt;button_2 = ttk.Button(&lt;br&gt;    master=&lt;/span&gt;&lt;/font&gt;&lt;span style=&quot;color: rgb(148, 85, 141); font-family: &amp;quot;JetBrains Mono&amp;quot;, monospace; font-size: 9.8pt;&quot;&gt;self&lt;/span&gt;&lt;font face=&quot;JetBrains Mono, monospace&quot; color=&quot;#bcbec4&quot;&gt;&lt;span style=&quot;font-size: 9.8pt;&quot;&gt;.dashboard_operations,&lt;br&gt;    &lt;/span&gt;&lt;/font&gt;&lt;span style=&quot;color: rgb(170, 73, 38); font-family: &amp;quot;JetBrains Mono&amp;quot;, monospace; font-size: 9.8pt;&quot;&gt;text&lt;/span&gt;&lt;font face=&quot;JetBrains Mono, monospace&quot; color=&quot;#bcbec4&quot;&gt;&lt;span style=&quot;font-size: 9.8pt;&quot;&gt;=&lt;/span&gt;&lt;/font&gt;&lt;span style=&quot;color: rgb(106, 171, 115); font-family: &amp;quot;JetBrains Mono&amp;quot;, monospace; font-size: 9.8pt;&quot;&gt;&#39;Generate Combo Infiles&#39;&lt;/span&gt;&lt;font face=&quot;JetBrains Mono, monospace&quot; color=&quot;#bcbec4&quot;&gt;&lt;span style=&quot;font-size: 9.8pt;&quot;&gt;,&lt;br&gt;    &lt;/span&gt;&lt;/font&gt;&lt;span style=&quot;color: rgb(170, 73, 38); font-family: &amp;quot;JetBrains Mono&amp;quot;, monospace; font-size: 9.8pt;&quot;&gt;style&lt;/span&gt;&lt;font face=&quot;JetBrains Mono, monospace&quot; color=&quot;#bcbec4&quot;&gt;&lt;span style=&quot;font-size: 9.8pt;&quot;&gt;=PRIMARY,&lt;br&gt;    &lt;/span&gt;&lt;/font&gt;&lt;span style=&quot;color: rgb(170, 73, 38); font-family: &amp;quot;JetBrains Mono&amp;quot;, monospace; font-size: 9.8pt;&quot;&gt;cursor&lt;/span&gt;&lt;font face=&quot;JetBrains Mono, monospace&quot; color=&quot;#bcbec4&quot;&gt;&lt;span style=&quot;font-size: 9.8pt;&quot;&gt;=&lt;/span&gt;&lt;/font&gt;&lt;span style=&quot;color: rgb(106, 171, 115); font-family: &amp;quot;JetBrains Mono&amp;quot;, monospace; font-size: 9.8pt;&quot;&gt;&#39;hand2&#39;&lt;/span&gt;&lt;font face=&quot;JetBrains Mono, monospace&quot; color=&quot;#bcbec4&quot;&gt;&lt;span style=&quot;font-size: 9.8pt;&quot;&gt;,&lt;br&gt;    &lt;/span&gt;&lt;/font&gt;&lt;span style=&quot;color: rgb(170, 73, 38); font-family: &amp;quot;JetBrains Mono&amp;quot;, monospace; font-size: 9.8pt;&quot;&gt;command&lt;/span&gt;&lt;font face=&quot;JetBrains Mono, monospace&quot; color=&quot;#bcbec4&quot;&gt;&lt;span style=&quot;font-size: 9.8pt;&quot;&gt;=&lt;/span&gt;&lt;/font&gt;&lt;span style=&quot;color: rgb(207, 142, 109); font-family: &amp;quot;JetBrains Mono&amp;quot;, monospace; font-size: 9.8pt;&quot;&gt;lambda&lt;/span&gt;&lt;font face=&quot;JetBrains Mono, monospace&quot; color=&quot;#bcbec4&quot;&gt;&lt;span style=&quot;font-size: 9.8pt;&quot;&gt;: &lt;/span&gt;&lt;/font&gt;&lt;span style=&quot;color: rgb(148, 85, 141); font-family: &amp;quot;JetBrains Mono&amp;quot;, monospace; font-size: 9.8pt;&quot;&gt;self&lt;/span&gt;&lt;font face=&quot;JetBrains Mono, monospace&quot; color=&quot;#bcbec4&quot;&gt;&lt;span style=&quot;font-size: 9.8pt;&quot;&gt;.build_combo_all(),&lt;br&gt;)&lt;/span&gt;&lt;/font&gt;&lt;/pre&gt;&lt;/div&gt;" style="shape=process;whiteSpace=wrap;html=1;backgroundOutline=1;align=left;" vertex="1" parent="1">
          <mxGeometry x="1200" y="1160" width="400" height="140" as="geometry" />
        </mxCell>
        <mxCell id="2yg5KASqGBkeXSeHkA1k-67" style="edgeStyle=orthogonalEdgeStyle;rounded=0;orthogonalLoop=1;jettySize=auto;html=1;entryX=0;entryY=0.5;entryDx=0;entryDy=0;" edge="1" parent="1" source="2yg5KASqGBkeXSeHkA1k-64" target="2yg5KASqGBkeXSeHkA1k-66">
          <mxGeometry relative="1" as="geometry" />
        </mxCell>
        <mxCell id="2yg5KASqGBkeXSeHkA1k-70" style="edgeStyle=orthogonalEdgeStyle;rounded=0;orthogonalLoop=1;jettySize=auto;html=1;entryX=0;entryY=0.5;entryDx=0;entryDy=0;" edge="1" parent="1" source="2yg5KASqGBkeXSeHkA1k-64" target="2yg5KASqGBkeXSeHkA1k-68">
          <mxGeometry relative="1" as="geometry" />
        </mxCell>
        <mxCell id="2yg5KASqGBkeXSeHkA1k-64" value="&lt;div style=&quot;background-color:#1e1f22;color:#bcbec4&quot;&gt;&lt;pre style=&quot;font-family:&#39;JetBrains Mono&#39;,monospace;font-size:9.8pt;&quot;&gt;def &lt;span style=&quot;color:#56a8f5;&quot;&gt;build_combo_all&lt;/span&gt;(&lt;span style=&quot;color:#94558d;&quot;&gt;self&lt;/span&gt;):&lt;br&gt;&lt;/pre&gt;&lt;/div&gt;" style="rounded=1;whiteSpace=wrap;html=1;" vertex="1" parent="1">
          <mxGeometry x="1957" y="1215" width="210" height="30" as="geometry" />
        </mxCell>
        <mxCell id="2yg5KASqGBkeXSeHkA1k-73" style="edgeStyle=orthogonalEdgeStyle;rounded=0;orthogonalLoop=1;jettySize=auto;html=1;" edge="1" parent="1" source="2yg5KASqGBkeXSeHkA1k-66" target="2yg5KASqGBkeXSeHkA1k-71">
          <mxGeometry relative="1" as="geometry" />
        </mxCell>
        <mxCell id="2yg5KASqGBkeXSeHkA1k-66" value="&lt;div style=&quot;background-color:#1e1f22;color:#bcbec4&quot;&gt;&lt;pre style=&quot;font-family:&#39;JetBrains Mono&#39;,monospace;font-size:9.8pt;&quot;&gt;self.get_page_all_selected()&lt;/pre&gt;&lt;/div&gt;" style="rounded=1;whiteSpace=wrap;html=1;align=left;" vertex="1" parent="1">
          <mxGeometry x="2019.5" y="1270" width="215" height="40" as="geometry" />
        </mxCell>
        <mxCell id="2yg5KASqGBkeXSeHkA1k-77" style="edgeStyle=orthogonalEdgeStyle;rounded=0;orthogonalLoop=1;jettySize=auto;html=1;entryX=0;entryY=0.5;entryDx=0;entryDy=0;" edge="1" parent="1" source="2yg5KASqGBkeXSeHkA1k-68" target="2yg5KASqGBkeXSeHkA1k-75">
          <mxGeometry relative="1" as="geometry" />
        </mxCell>
        <mxCell id="2yg5KASqGBkeXSeHkA1k-68" value="&lt;div style=&quot;background-color:#1e1f22;color:#bcbec4&quot;&gt;&lt;pre style=&quot;font-family:&#39;JetBrains Mono&#39;,monospace;font-size:9.8pt;&quot;&gt;self.pdf_t.merge_files(selection, outfile)&lt;/pre&gt;&lt;/div&gt;" style="rounded=1;whiteSpace=wrap;html=1;align=left;" vertex="1" parent="1">
          <mxGeometry x="2019.5" y="1370" width="315" height="30" as="geometry" />
        </mxCell>
        <mxCell id="2yg5KASqGBkeXSeHkA1k-74" style="edgeStyle=orthogonalEdgeStyle;rounded=0;orthogonalLoop=1;jettySize=auto;html=1;" edge="1" parent="1" source="2yg5KASqGBkeXSeHkA1k-71" target="2yg5KASqGBkeXSeHkA1k-72">
          <mxGeometry relative="1" as="geometry" />
        </mxCell>
        <mxCell id="2yg5KASqGBkeXSeHkA1k-71" value="&lt;div style=&quot;background-color:#1e1f22;color:#bcbec4&quot;&gt;&lt;pre style=&quot;font-family:&#39;JetBrains Mono&#39;,monospace;font-size:9.8pt;&quot;&gt;def &lt;span style=&quot;color:#56a8f5;&quot;&gt;get_page_all_selected&lt;/span&gt;(&lt;span style=&quot;color:#94558d;&quot;&gt;self&lt;/span&gt;):&lt;br&gt;    pdf_pages_listing = &lt;span style=&quot;color:#94558d;&quot;&gt;self&lt;/span&gt;.pdf_t.list_pages_dir()&lt;/pre&gt;&lt;/div&gt;" style="rounded=1;whiteSpace=wrap;html=1;align=left;" vertex="1" parent="1">
          <mxGeometry x="2509" y="1268" width="380" height="44" as="geometry" />
        </mxCell>
        <mxCell id="2yg5KASqGBkeXSeHkA1k-72" value="&lt;div style=&quot;background-color:#1e1f22;color:#bcbec4&quot;&gt;&lt;pre style=&quot;font-family:&#39;JetBrains Mono&#39;,monospace;font-size:9.8pt;&quot;&gt;def &lt;span style=&quot;color:#56a8f5;&quot;&gt;list_pages_dir&lt;/span&gt;(&lt;span style=&quot;color:#94558d;&quot;&gt;self&lt;/span&gt;):&lt;/pre&gt;&lt;/div&gt;" style="rounded=1;whiteSpace=wrap;html=1;align=left;" vertex="1" parent="1">
          <mxGeometry x="3080" y="1277" width="190" height="30" as="geometry" />
        </mxCell>
        <mxCell id="2yg5KASqGBkeXSeHkA1k-75" value="&lt;div style=&quot;background-color:#1e1f22;color:#bcbec4&quot;&gt;&lt;pre style=&quot;font-family:&#39;JetBrains Mono&#39;,monospace;font-size:9.8pt;&quot;&gt;def &lt;span style=&quot;color:#56a8f5;&quot;&gt;merge_files&lt;/span&gt;(&lt;span style=&quot;color:#94558d;&quot;&gt;self&lt;/span&gt;, m_lst, o_file):&lt;/pre&gt;&lt;/div&gt;" style="rounded=1;whiteSpace=wrap;html=1;align=left;" vertex="1" parent="1">
          <mxGeometry x="3080" y="1367.5" width="275" height="32.5" as="geometry" />
        </mxCell>
        <mxCell id="2yg5KASqGBkeXSeHkA1k-87" style="edgeStyle=orthogonalEdgeStyle;rounded=0;orthogonalLoop=1;jettySize=auto;html=1;entryX=0;entryY=0.5;entryDx=0;entryDy=0;" edge="1" parent="1" source="2yg5KASqGBkeXSeHkA1k-80" target="2yg5KASqGBkeXSeHkA1k-81">
          <mxGeometry relative="1" as="geometry" />
        </mxCell>
        <mxCell id="2yg5KASqGBkeXSeHkA1k-80" value="&lt;div style=&quot;background-color: rgb(30, 31, 34);&quot;&gt;&lt;pre style=&quot;&quot;&gt;&lt;div style=&quot;&quot;&gt;&lt;div style=&quot;color: rgb(188, 190, 196);&quot;&gt;&lt;pre style=&quot;font-family:&#39;JetBrains Mono&#39;,monospace;font-size:9.8pt;&quot;&gt;button_3 = ttk.Button(&lt;br&gt;    master=&lt;span style=&quot;color:#94558d;&quot;&gt;self&lt;/span&gt;.dashboard_operations,&lt;br&gt;    &lt;span style=&quot;color:#aa4926;&quot;&gt;text&lt;/span&gt;=&lt;span style=&quot;color:#6aab73;&quot;&gt;&#39;Generate Combo Pages&#39;&lt;/span&gt;,&lt;br&gt;    &lt;span style=&quot;color:#aa4926;&quot;&gt;style&lt;/span&gt;=PRIMARY,&lt;br&gt;    &lt;span style=&quot;color:#aa4926;&quot;&gt;cursor&lt;/span&gt;=&lt;span style=&quot;color:#6aab73;&quot;&gt;&#39;hand2&#39;&lt;/span&gt;,&lt;br&gt;    &lt;span style=&quot;color:#aa4926;&quot;&gt;command&lt;/span&gt;=&lt;span style=&quot;color:#cf8e6d;&quot;&gt;lambda&lt;/span&gt;: &lt;span style=&quot;color:#94558d;&quot;&gt;self&lt;/span&gt;.gen_combo_pages_from_combo_pages(),&lt;br&gt;)&lt;/pre&gt;&lt;/div&gt;&lt;/div&gt;&lt;/pre&gt;&lt;/div&gt;" style="shape=process;whiteSpace=wrap;html=1;backgroundOutline=1;align=left;" vertex="1" parent="1">
          <mxGeometry x="1200" y="1445" width="550" height="140" as="geometry" />
        </mxCell>
        <mxCell id="2yg5KASqGBkeXSeHkA1k-86" style="edgeStyle=orthogonalEdgeStyle;rounded=0;orthogonalLoop=1;jettySize=auto;html=1;entryX=0;entryY=0.5;entryDx=0;entryDy=0;" edge="1" parent="1" source="2yg5KASqGBkeXSeHkA1k-81" target="2yg5KASqGBkeXSeHkA1k-83">
          <mxGeometry relative="1" as="geometry" />
        </mxCell>
        <mxCell id="2yg5KASqGBkeXSeHkA1k-93" style="edgeStyle=orthogonalEdgeStyle;rounded=0;orthogonalLoop=1;jettySize=auto;html=1;" edge="1" parent="1" source="2yg5KASqGBkeXSeHkA1k-81" target="2yg5KASqGBkeXSeHkA1k-84">
          <mxGeometry relative="1" as="geometry">
            <Array as="points">
              <mxPoint x="2637" y="1570" />
              <mxPoint x="2637" y="1570" />
            </Array>
          </mxGeometry>
        </mxCell>
        <mxCell id="2yg5KASqGBkeXSeHkA1k-81" value="&lt;div style=&quot;background-color:#1e1f22;color:#bcbec4&quot;&gt;&lt;pre style=&quot;font-family:&#39;JetBrains Mono&#39;,monospace;font-size:9.8pt;&quot;&gt;def &lt;span style=&quot;color:#56a8f5;&quot;&gt;gen_combo_pages_from_combo_pages&lt;/span&gt;(&lt;span style=&quot;color:#94558d;&quot;&gt;self&lt;/span&gt;):&lt;/pre&gt;&lt;pre style=&quot;font-family:&#39;JetBrains Mono&#39;,monospace;font-size:9.8pt;&quot;&gt;&lt;div&gt;&lt;pre style=&quot;font-family:&#39;JetBrains Mono&#39;,monospace;font-size:9.8pt;&quot;&gt;&lt;pre style=&quot;border-color: var(--border-color); font-family: &amp;quot;JetBrains Mono&amp;quot;, monospace; font-size: 9.8pt;&quot;&gt;&lt;span style=&quot;white-space: pre;&quot;&gt;&#x9;&lt;/span&gt;self.combo_infiles_listing_PROTO()&lt;/pre&gt;&lt;/pre&gt;&lt;pre style=&quot;font-family:&#39;JetBrains Mono&#39;,monospace;font-size:9.8pt;&quot;&gt;&lt;span style=&quot;white-space: pre;&quot;&gt;&#x9;&lt;/span&gt;self.pdf_t.split_combo_infiles_2_pages(&lt;br&gt; &lt;span style=&quot;white-space: pre;&quot;&gt;&#x9;&lt;/span&gt;   combo_infile,&lt;br&gt; &lt;span style=&quot;white-space: pre;&quot;&gt;&#x9;&lt;/span&gt;   name_of_split,&lt;br&gt; &lt;span style=&quot;white-space: pre;&quot;&gt;&#x9;&lt;/span&gt;   in_dir,&lt;br&gt;  &lt;span style=&quot;white-space: pre;&quot;&gt;&#x9;&lt;/span&gt;  out_dir&lt;br&gt;)&lt;/pre&gt;&lt;/div&gt;&lt;/pre&gt;&lt;/div&gt;" style="rounded=1;whiteSpace=wrap;html=1;align=left;" vertex="1" parent="1">
          <mxGeometry x="1957" y="1422.5" width="350" height="185" as="geometry" />
        </mxCell>
        <mxCell id="2yg5KASqGBkeXSeHkA1k-83" value="&lt;div style=&quot;background-color:#1e1f22;color:#bcbec4&quot;&gt;&lt;pre style=&quot;font-family:&#39;JetBrains Mono&#39;,monospace;font-size:9.8pt;&quot;&gt;&lt;br&gt;def &lt;span style=&quot;color:#56a8f5;&quot;&gt;combo_infiles_listing_PROTO&lt;/span&gt;(&lt;span style=&quot;color:#94558d;&quot;&gt;self&lt;/span&gt;):&lt;br&gt;    listing = &lt;span style=&quot;color:#94558d;&quot;&gt;self&lt;/span&gt;.pdf_t.combo_infiles_listing()&lt;/pre&gt;&lt;/div&gt;" style="rounded=1;whiteSpace=wrap;html=1;align=left;" vertex="1" parent="1">
          <mxGeometry x="2509" y="1485" width="360" height="60" as="geometry" />
        </mxCell>
        <mxCell id="2yg5KASqGBkeXSeHkA1k-84" value="&lt;div style=&quot;background-color:#1e1f22;color:#bcbec4&quot;&gt;&lt;pre style=&quot;font-family:&#39;JetBrains Mono&#39;,monospace;font-size:9.8pt;&quot;&gt;def &lt;span style=&quot;color:#56a8f5;&quot;&gt;split_combo_infiles_2_pages&lt;/span&gt;(&lt;span style=&quot;color:#94558d;&quot;&gt;self&lt;/span&gt;, pdf_file, name_of_split, in_dir, out_dir):&lt;br&gt;&lt;/pre&gt;&lt;/div&gt;" style="rounded=1;whiteSpace=wrap;html=1;align=left;" vertex="1" parent="1">
          <mxGeometry x="3080" y="1555" width="590" height="30" as="geometry" />
        </mxCell>
        <mxCell id="2yg5KASqGBkeXSeHkA1k-101" style="edgeStyle=orthogonalEdgeStyle;rounded=0;orthogonalLoop=1;jettySize=auto;html=1;" edge="1" parent="1" source="2yg5KASqGBkeXSeHkA1k-90" target="2yg5KASqGBkeXSeHkA1k-92">
          <mxGeometry relative="1" as="geometry" />
        </mxCell>
        <mxCell id="2yg5KASqGBkeXSeHkA1k-90" value="&lt;div style=&quot;background-color:#1e1f22;color:#bcbec4&quot;&gt;&lt;pre style=&quot;font-family:&#39;JetBrains Mono&#39;,monospace;font-size:9.8pt;&quot;&gt;&lt;br&gt;button_4 = ttk.Button(&lt;br&gt;    &lt;span style=&quot;color:#aa4926;&quot;&gt;master&lt;/span&gt;=&lt;span style=&quot;color:#94558d;&quot;&gt;self&lt;/span&gt;.dashboard_operations,&lt;br&gt;    &lt;span style=&quot;color:#aa4926;&quot;&gt;text&lt;/span&gt;=&lt;span style=&quot;color:#6aab73;&quot;&gt;&#39;Generate Combo Images&#39;&lt;/span&gt;,&lt;br&gt;    &lt;span style=&quot;color:#aa4926;&quot;&gt;style&lt;/span&gt;=PRIMARY,&lt;br&gt;    &lt;span style=&quot;color:#aa4926;&quot;&gt;cursor&lt;/span&gt;=&lt;span style=&quot;color:#6aab73;&quot;&gt;&#39;hand2&#39;&lt;/span&gt;,&lt;br&gt;    &lt;span style=&quot;color:#aa4926;&quot;&gt;command&lt;/span&gt;=&lt;span style=&quot;color:#cf8e6d;&quot;&gt;lambda&lt;/span&gt;: &lt;span style=&quot;color:#94558d;&quot;&gt;self&lt;/span&gt;.generate_combo_pages_images(),&lt;br&gt;)&lt;/pre&gt;&lt;/div&gt;" style="shape=process;whiteSpace=wrap;html=1;backgroundOutline=1;align=left;" vertex="1" parent="1">
          <mxGeometry x="1200" y="1630" width="520" height="140" as="geometry" />
        </mxCell>
        <mxCell id="2yg5KASqGBkeXSeHkA1k-103" style="edgeStyle=orthogonalEdgeStyle;rounded=0;orthogonalLoop=1;jettySize=auto;html=1;" edge="1" parent="1" source="2yg5KASqGBkeXSeHkA1k-91" target="2yg5KASqGBkeXSeHkA1k-102">
          <mxGeometry relative="1" as="geometry" />
        </mxCell>
        <mxCell id="2yg5KASqGBkeXSeHkA1k-104" style="edgeStyle=orthogonalEdgeStyle;rounded=0;orthogonalLoop=1;jettySize=auto;html=1;entryX=0;entryY=0.5;entryDx=0;entryDy=0;" edge="1" parent="1" source="2yg5KASqGBkeXSeHkA1k-91" target="2yg5KASqGBkeXSeHkA1k-37">
          <mxGeometry relative="1" as="geometry" />
        </mxCell>
        <mxCell id="2yg5KASqGBkeXSeHkA1k-105" style="edgeStyle=orthogonalEdgeStyle;rounded=0;orthogonalLoop=1;jettySize=auto;html=1;" edge="1" parent="1" source="2yg5KASqGBkeXSeHkA1k-91">
          <mxGeometry relative="1" as="geometry">
            <mxPoint x="1830" y="1060" as="targetPoint" />
          </mxGeometry>
        </mxCell>
        <mxCell id="2yg5KASqGBkeXSeHkA1k-106" style="edgeStyle=orthogonalEdgeStyle;rounded=0;orthogonalLoop=1;jettySize=auto;html=1;entryX=0;entryY=0.5;entryDx=0;entryDy=0;" edge="1" parent="1" source="2yg5KASqGBkeXSeHkA1k-91" target="2yg5KASqGBkeXSeHkA1k-64">
          <mxGeometry relative="1" as="geometry" />
        </mxCell>
        <mxCell id="2yg5KASqGBkeXSeHkA1k-107" style="edgeStyle=orthogonalEdgeStyle;rounded=0;orthogonalLoop=1;jettySize=auto;html=1;entryX=0;entryY=0.5;entryDx=0;entryDy=0;" edge="1" parent="1" source="2yg5KASqGBkeXSeHkA1k-91" target="2yg5KASqGBkeXSeHkA1k-81">
          <mxGeometry relative="1" as="geometry" />
        </mxCell>
        <mxCell id="2yg5KASqGBkeXSeHkA1k-108" style="edgeStyle=orthogonalEdgeStyle;rounded=0;orthogonalLoop=1;jettySize=auto;html=1;entryX=0;entryY=0.5;entryDx=0;entryDy=0;" edge="1" parent="1" source="2yg5KASqGBkeXSeHkA1k-91" target="2yg5KASqGBkeXSeHkA1k-92">
          <mxGeometry relative="1" as="geometry" />
        </mxCell>
        <mxCell id="2yg5KASqGBkeXSeHkA1k-91" value="&lt;div style=&quot;background-color:#1e1f22;color:#bcbec4&quot;&gt;&lt;pre style=&quot;font-family:&#39;JetBrains Mono&#39;,monospace;font-size:9.8pt;&quot;&gt;&lt;br&gt;button_5 = ttk.Button(&lt;br&gt;    master=&lt;span style=&quot;color:#94558d;&quot;&gt;self&lt;/span&gt;.dashboard_operations,&lt;br&gt;    &lt;span style=&quot;color:#aa4926;&quot;&gt;text&lt;/span&gt;=&lt;span style=&quot;color:#6aab73;&quot;&gt;&#39;Full Wash Cycle&#39;&lt;/span&gt;,&lt;br&gt;    &lt;span style=&quot;color:#aa4926;&quot;&gt;style&lt;/span&gt;=DANGER,&lt;br&gt;    &lt;span style=&quot;color:#aa4926;&quot;&gt;cursor&lt;/span&gt;=&lt;span style=&quot;color:#6aab73;&quot;&gt;&#39;hand2&#39;&lt;/span&gt;,&lt;br&gt;    &lt;span style=&quot;color:#aa4926;&quot;&gt;command&lt;/span&gt;=&lt;span style=&quot;color:#cf8e6d;&quot;&gt;lambda&lt;/span&gt;: &lt;span style=&quot;color:#94558d;&quot;&gt;self&lt;/span&gt;.full_wash_cycle(),&lt;br&gt;)&lt;/pre&gt;&lt;/div&gt;" style="shape=process;whiteSpace=wrap;html=1;backgroundOutline=1;align=left;" vertex="1" parent="1">
          <mxGeometry x="1200" y="1850" width="410" height="140" as="geometry" />
        </mxCell>
        <mxCell id="2yg5KASqGBkeXSeHkA1k-96" style="edgeStyle=orthogonalEdgeStyle;rounded=0;orthogonalLoop=1;jettySize=auto;html=1;entryX=0;entryY=0.5;entryDx=0;entryDy=0;" edge="1" parent="1" source="2yg5KASqGBkeXSeHkA1k-92" target="2yg5KASqGBkeXSeHkA1k-94">
          <mxGeometry relative="1" as="geometry" />
        </mxCell>
        <mxCell id="2yg5KASqGBkeXSeHkA1k-92" value="&lt;div style=&quot;background-color:#1e1f22;color:#bcbec4&quot;&gt;&lt;pre style=&quot;font-family:&#39;JetBrains Mono&#39;,monospace;font-size:9.8pt;&quot;&gt;def &lt;span style=&quot;color:#56a8f5;&quot;&gt;generate_combo_pages_images&lt;/span&gt;(&lt;span style=&quot;color:#94558d;&quot;&gt;self&lt;/span&gt;):&lt;br&gt;    c_lst = &lt;span style=&quot;color:#94558d;&quot;&gt;self&lt;/span&gt;.get_combo_pages_listing()&lt;/pre&gt;&lt;pre style=&quot;font-family:&#39;JetBrains Mono&#39;,monospace;font-size:9.8pt;&quot;&gt;    self.combo_pages_images_refresh()&lt;/pre&gt;&lt;/div&gt;" style="rounded=1;whiteSpace=wrap;html=1;align=left;" vertex="1" parent="1">
          <mxGeometry x="1967" y="1660" width="320" height="80" as="geometry" />
        </mxCell>
        <mxCell id="2yg5KASqGBkeXSeHkA1k-100" style="edgeStyle=orthogonalEdgeStyle;rounded=0;orthogonalLoop=1;jettySize=auto;html=1;" edge="1" parent="1" source="2yg5KASqGBkeXSeHkA1k-94" target="2yg5KASqGBkeXSeHkA1k-95">
          <mxGeometry relative="1" as="geometry" />
        </mxCell>
        <mxCell id="2yg5KASqGBkeXSeHkA1k-94" value="&lt;div style=&quot;background-color:#1e1f22;color:#bcbec4&quot;&gt;&lt;pre style=&quot;font-family:&#39;JetBrains Mono&#39;,monospace;font-size:9.8pt;&quot;&gt;&lt;br&gt;def &lt;span style=&quot;color:#56a8f5;&quot;&gt;get_combo_pages_listing&lt;/span&gt;(&lt;span style=&quot;color:#94558d;&quot;&gt;self&lt;/span&gt;):&lt;br&gt;    listing = &lt;span style=&quot;color:#94558d;&quot;&gt;self&lt;/span&gt;.pdf_t.list_combo_pages_dir()&lt;/pre&gt;&lt;/div&gt;" style="rounded=1;whiteSpace=wrap;html=1;align=left;" vertex="1" parent="1">
          <mxGeometry x="2509" y="1668.5" width="350" height="61" as="geometry" />
        </mxCell>
        <mxCell id="2yg5KASqGBkeXSeHkA1k-99" value="" style="group" connectable="0" vertex="1" parent="1">
          <mxGeometry x="3080" y="1659" width="240" height="55" as="geometry" />
        </mxCell>
        <mxCell id="2yg5KASqGBkeXSeHkA1k-95" value="&lt;div style=&quot;background-color:#1e1f22;color:#bcbec4&quot;&gt;&lt;pre style=&quot;font-family:&#39;JetBrains Mono&#39;,monospace;font-size:9.8pt;&quot;&gt;def &lt;span style=&quot;color:#56a8f5;&quot;&gt;list_combo_pages_dir&lt;/span&gt;(&lt;span style=&quot;color:#94558d;&quot;&gt;self&lt;/span&gt;):&lt;br&gt;&lt;/pre&gt;&lt;/div&gt;" style="rounded=1;whiteSpace=wrap;html=1;" vertex="1" parent="2yg5KASqGBkeXSeHkA1k-99">
          <mxGeometry y="25" width="240" height="30" as="geometry" />
        </mxCell>
        <mxCell id="2yg5KASqGBkeXSeHkA1k-97" value="TODO: move def to pdf_t&amp;nbsp;" style="text;html=1;strokeColor=none;fillColor=none;align=left;verticalAlign=middle;whiteSpace=wrap;rounded=0;" vertex="1" parent="2yg5KASqGBkeXSeHkA1k-99">
          <mxGeometry width="170" height="30" as="geometry" />
        </mxCell>
        <mxCell id="2yg5KASqGBkeXSeHkA1k-102" value="&lt;div style=&quot;background-color:#1e1f22;color:#bcbec4&quot;&gt;&lt;pre style=&quot;font-family:&#39;JetBrains Mono&#39;,monospace;font-size:9.8pt;&quot;&gt;&lt;br&gt;def &lt;span style=&quot;color:#56a8f5;&quot;&gt;full_wash_cycle&lt;/span&gt;(&lt;span style=&quot;color:#94558d;&quot;&gt;self&lt;/span&gt;):&lt;br&gt;    &lt;span style=&quot;color:#7a7e85;&quot;&gt;# print(f&#39;\nfull_wash_cycle&#39;)&lt;br&gt;&lt;/span&gt;&lt;span style=&quot;color:#7a7e85;&quot;&gt;    &lt;/span&gt;&lt;span style=&quot;color:#94558d;&quot;&gt;self&lt;/span&gt;.load_pdf_file()&lt;br&gt;&lt;br&gt;    &lt;span style=&quot;color:#7a7e85;&quot;&gt;# print(f&#39;full_wash_cycle:gen pdf pages&#39;)&lt;br&gt;&lt;/span&gt;&lt;span style=&quot;color:#7a7e85;&quot;&gt;    &lt;/span&gt;&lt;span style=&quot;color:#94558d;&quot;&gt;self&lt;/span&gt;.gen_pdf_pages_from_all_infiles()&lt;br&gt;&lt;br&gt;    &lt;span style=&quot;color:#7a7e85;&quot;&gt;# print(f&#39;full_wash_cycle: building combo&#39;)&lt;br&gt;&lt;/span&gt;&lt;span style=&quot;color:#7a7e85;&quot;&gt;    &lt;/span&gt;&lt;span style=&quot;color:#94558d;&quot;&gt;self&lt;/span&gt;.build_combo_all()&lt;br&gt;&lt;br&gt;    &lt;span style=&quot;color:#7a7e85;&quot;&gt;# print(f&#39;full_wash_cycle: building combo pages&#39;)&lt;br&gt;&lt;/span&gt;&lt;span style=&quot;color:#7a7e85;&quot;&gt;    &lt;/span&gt;&lt;span style=&quot;color:#94558d;&quot;&gt;self&lt;/span&gt;.gen_combo_pages_from_combo_pages()&lt;br&gt;&lt;br&gt;    &lt;span style=&quot;color:#7a7e85;&quot;&gt;# print(f&#39;full_wash_cycle: building combo pages images&#39;)&lt;br&gt;&lt;/span&gt;&lt;span style=&quot;color:#7a7e85;&quot;&gt;    &lt;/span&gt;&lt;span style=&quot;color:#94558d;&quot;&gt;self&lt;/span&gt;.generate_combo_pages_images()&lt;br&gt;&lt;/pre&gt;&lt;/div&gt;" style="rounded=1;whiteSpace=wrap;html=1;align=left;" vertex="1" parent="1">
          <mxGeometry x="1957" y="1780" width="450" height="280" as="geometry" />
        </mxCell>
        <mxCell id="2yg5KASqGBkeXSeHkA1k-115" style="edgeStyle=orthogonalEdgeStyle;rounded=0;orthogonalLoop=1;jettySize=auto;html=1;" edge="1" parent="1" source="2yg5KASqGBkeXSeHkA1k-112" target="2yg5KASqGBkeXSeHkA1k-113">
          <mxGeometry relative="1" as="geometry" />
        </mxCell>
        <mxCell id="2yg5KASqGBkeXSeHkA1k-112" value="&lt;div style=&quot;background-color:#1e1f22;color:#bcbec4&quot;&gt;&lt;pre style=&quot;font-family:&#39;JetBrains Mono&#39;,monospace;font-size:9.8pt;&quot;&gt;def &lt;span style=&quot;color:#56a8f5;&quot;&gt;nj_dashboard_main&lt;/span&gt;(&lt;span style=&quot;color:#94558d;&quot;&gt;self&lt;/span&gt;):&lt;br&gt;    &lt;span style=&quot;color:#94558d;&quot;&gt;self&lt;/span&gt;.nj_dashboard_main = ttk.Frame(&lt;br&gt;        &lt;span style=&quot;color:#aa4926;&quot;&gt;master&lt;/span&gt;=&lt;span style=&quot;color:#94558d;&quot;&gt;self&lt;/span&gt;.nj_dash_0,&lt;/pre&gt;&lt;pre style=&quot;font-family:&#39;JetBrains Mono&#39;,monospace;font-size:9.8pt;&quot;&gt;&lt;div&gt;&lt;pre style=&quot;font-family:&#39;JetBrains Mono&#39;,monospace;font-size:9.8pt;&quot;&gt;&lt;span style=&quot;&quot;&gt;&lt;span style=&quot;white-space: pre;&quot;&gt;&amp;nbsp;&amp;nbsp;&amp;nbsp;&amp;nbsp;&lt;/span&gt;&lt;/span&gt;self.nj_dashboard_scroll_pages = ScrolledFrame(&lt;br&gt;    &lt;span style=&quot;&quot;&gt;&lt;span style=&quot;white-space: pre;&quot;&gt;&amp;nbsp;&amp;nbsp;&amp;nbsp;&amp;nbsp;&lt;/span&gt;&lt;/span&gt;&lt;span style=&quot;&quot;&gt;&lt;span style=&quot;white-space: pre;&quot;&gt;&amp;nbsp;&amp;nbsp;&amp;nbsp;&amp;nbsp;&lt;/span&gt;&lt;/span&gt;&lt;span style=&quot;color:#aa4926;&quot;&gt;master&lt;/span&gt;=&lt;span style=&quot;color:#94558d;&quot;&gt;self&lt;/span&gt;.nj_dashboard_main,&lt;/pre&gt;&lt;pre style=&quot;font-family:&#39;JetBrains Mono&#39;,monospace;font-size:9.8pt;&quot;&gt;&lt;div&gt;&lt;pre style=&quot;font-family:&#39;JetBrains Mono&#39;,monospace;font-size:9.8pt;&quot;&gt;    self.combo_pages_images_refresh()&lt;br&gt;&lt;/pre&gt;&lt;/div&gt;&lt;/pre&gt;&lt;/div&gt;&lt;/pre&gt;&lt;/div&gt;" style="rounded=1;whiteSpace=wrap;html=1;align=left;" vertex="1" parent="1">
          <mxGeometry x="1220" y="2228" width="390" height="132" as="geometry" />
        </mxCell>
        <mxCell id="2yg5KASqGBkeXSeHkA1k-118" style="edgeStyle=orthogonalEdgeStyle;rounded=0;orthogonalLoop=1;jettySize=auto;html=1;" edge="1" parent="1" source="2yg5KASqGBkeXSeHkA1k-113" target="2yg5KASqGBkeXSeHkA1k-116">
          <mxGeometry relative="1" as="geometry" />
        </mxCell>
        <mxCell id="2yg5KASqGBkeXSeHkA1k-113" value="&lt;div style=&quot;background-color:#1e1f22;color:#bcbec4&quot;&gt;&lt;pre style=&quot;font-family:&#39;JetBrains Mono&#39;,monospace;font-size:9.8pt;&quot;&gt;def &lt;span style=&quot;color:#56a8f5;&quot;&gt;combo_pages_images_refresh&lt;/span&gt;(&lt;span style=&quot;color:#94558d;&quot;&gt;self&lt;/span&gt;):&lt;br&gt;    row = &lt;span style=&quot;color:#2aacb8;&quot;&gt;0&lt;br&gt;&lt;/span&gt;&lt;span style=&quot;color:#2aacb8;&quot;&gt;    &lt;/span&gt;col_index = &lt;span style=&quot;color:#2aacb8;&quot;&gt;0&lt;br&gt;&lt;/span&gt;&lt;span style=&quot;color:#2aacb8;&quot;&gt;    &lt;/span&gt;combo_lst = &lt;span style=&quot;color:#94558d;&quot;&gt;self&lt;/span&gt;.get_combo_pages_images_listing()&lt;br&gt;    ic(&lt;span style=&quot;color:#6aab73;&quot;&gt;f&#39;combo_pages_images_refresh: &lt;/span&gt;&lt;span style=&quot;color:#cf8e6d;&quot;&gt;{&lt;/span&gt;combo_lst&lt;span style=&quot;color:#cf8e6d;&quot;&gt;}&lt;/span&gt;&lt;span style=&quot;color:#6aab73;&quot;&gt;&#39;&lt;/span&gt;)&lt;/pre&gt;&lt;pre style=&quot;font-family:&#39;JetBrains Mono&#39;,monospace;font-size:9.8pt;&quot;&gt;&lt;div&gt;&lt;pre style=&quot;font-family:&#39;JetBrains Mono&#39;,monospace;font-size:9.8pt;&quot;&gt;&lt;span style=&quot;&quot;&gt;&lt;span style=&quot;&quot;&gt;&amp;nbsp;&amp;nbsp;&amp;nbsp;&amp;nbsp;&lt;/span&gt;&lt;/span&gt;combo_pages_image_frame = ttk.Frame(&lt;br&gt; &lt;span style=&quot;&quot;&gt;&lt;span style=&quot;&quot;&gt;&amp;nbsp;&amp;nbsp;&amp;nbsp;&amp;nbsp;&lt;/span&gt;&lt;/span&gt;   master=&lt;span style=&quot;color:#94558d;&quot;&gt;self&lt;/span&gt;.nj_dashboard_scroll_pages,&lt;/pre&gt;&lt;pre style=&quot;font-family:&#39;JetBrains Mono&#39;,monospace;font-size:9.8pt;&quot;&gt;&lt;div&gt;&lt;pre style=&quot;font-family:&#39;JetBrains Mono&#39;,monospace;font-size:9.8pt;&quot;&gt;&lt;span style=&quot;&quot;&gt;&lt;span style=&quot;white-space: pre;&quot;&gt;&amp;nbsp;&amp;nbsp;&amp;nbsp;&amp;nbsp;&lt;/span&gt;&lt;/span&gt;switch_initial_state = ttk.IntVar(value=&lt;span style=&quot;color:#2aacb8;&quot;&gt;1&lt;/span&gt;)&lt;br&gt;&lt;span style=&quot;&quot;&gt;&lt;span style=&quot;white-space: pre;&quot;&gt;&amp;nbsp;&amp;nbsp;&amp;nbsp;&amp;nbsp;&lt;/span&gt;&lt;/span&gt;&lt;span style=&quot;&quot;&gt;&lt;span style=&quot;white-space: pre;&quot;&gt;&amp;nbsp;&amp;nbsp;&amp;nbsp;&amp;nbsp;&lt;/span&gt;&lt;/span&gt;switch_name = ttk.Checkbutton(&lt;br&gt;    &lt;span style=&quot;&quot;&gt;&lt;span style=&quot;white-space: pre;&quot;&gt;&amp;nbsp;&amp;nbsp;&amp;nbsp;&amp;nbsp;&lt;/span&gt;&lt;span style=&quot;&quot;&gt;&lt;span style=&quot;white-space: pre;&quot;&gt;&amp;nbsp;&amp;nbsp;&amp;nbsp;&amp;nbsp;&lt;/span&gt;&lt;/span&gt;&lt;/span&gt;&lt;span style=&quot;color:#aa4926;&quot;&gt;master&lt;/span&gt;=combo_pages_image_frame,&lt;br&gt;    &lt;span style=&quot;&quot;&gt;&lt;span style=&quot;white-space: pre;&quot;&gt;&amp;nbsp;&amp;nbsp;&amp;nbsp;&amp;nbsp;&lt;/span&gt;&lt;/span&gt;&lt;span style=&quot;&quot;&gt;&lt;span style=&quot;white-space: pre;&quot;&gt;&amp;nbsp;&amp;nbsp;&amp;nbsp;&amp;nbsp;&lt;/span&gt;&lt;/span&gt;&lt;span style=&quot;color:#7a7e85;&quot;&gt;# width=50,&lt;br&gt;&lt;/span&gt;&lt;span style=&quot;color:#7a7e85;&quot;&gt;    &lt;span style=&quot;&quot;&gt;&lt;span style=&quot;white-space: pre;&quot;&gt;&amp;nbsp;&amp;nbsp;&amp;nbsp;&amp;nbsp;&lt;/span&gt;&lt;/span&gt;&lt;span style=&quot;&quot;&gt;&lt;span style=&quot;white-space: pre;&quot;&gt;&amp;nbsp;&amp;nbsp;&amp;nbsp;&amp;nbsp;&lt;/span&gt;&lt;/span&gt;# height=50,&lt;br&gt;&lt;/span&gt;&lt;span style=&quot;color:#7a7e85;&quot;&gt;    &lt;span style=&quot;&quot;&gt;&lt;span style=&quot;white-space: pre;&quot;&gt;&amp;nbsp;&amp;nbsp;&amp;nbsp;&amp;nbsp;&lt;/span&gt;&lt;/span&gt;&lt;span style=&quot;&quot;&gt;&lt;span style=&quot;white-space: pre;&quot;&gt;&amp;nbsp;&amp;nbsp;&amp;nbsp;&amp;nbsp;&lt;/span&gt;&lt;/span&gt;&lt;/span&gt;&lt;span style=&quot;color:#aa4926;&quot;&gt;style&lt;/span&gt;=WARNING,&lt;br&gt;    &lt;span style=&quot;&quot;&gt;&lt;span style=&quot;white-space: pre;&quot;&gt;&amp;nbsp;&amp;nbsp;&amp;nbsp;&amp;nbsp;&lt;/span&gt;&lt;/span&gt;&lt;span style=&quot;&quot;&gt;&lt;span style=&quot;white-space: pre;&quot;&gt;&amp;nbsp;&amp;nbsp;&amp;nbsp;&amp;nbsp;&lt;/span&gt;&lt;/span&gt;&lt;span style=&quot;color:#aa4926;&quot;&gt;variable&lt;/span&gt;=switch_initial_state,&lt;/pre&gt;&lt;pre style=&quot;font-family:&#39;JetBrains Mono&#39;,monospace;font-size:9.8pt;&quot;&gt;&lt;div&gt;&lt;pre style=&quot;font-family:&#39;JetBrains Mono&#39;,monospace;font-size:9.8pt;&quot;&gt;    combo_pages_image_label = ttk.Label(&lt;br&gt;        master=combo_pages_image_frame,&lt;/pre&gt;&lt;/div&gt;)&lt;/pre&gt;&lt;/div&gt;&lt;/pre&gt;&lt;/div&gt;&lt;/pre&gt;&lt;/div&gt;" style="rounded=1;whiteSpace=wrap;html=1;align=left;" vertex="1" parent="1">
          <mxGeometry x="1957" y="2110" width="400" height="368" as="geometry" />
        </mxCell>
        <mxCell id="2yg5KASqGBkeXSeHkA1k-119" style="edgeStyle=orthogonalEdgeStyle;rounded=0;orthogonalLoop=1;jettySize=auto;html=1;" edge="1" parent="1" source="2yg5KASqGBkeXSeHkA1k-116" target="2yg5KASqGBkeXSeHkA1k-117">
          <mxGeometry relative="1" as="geometry" />
        </mxCell>
        <mxCell id="2yg5KASqGBkeXSeHkA1k-116" value="&lt;div style=&quot;background-color:#1e1f22;color:#bcbec4&quot;&gt;&lt;pre style=&quot;font-family:&#39;JetBrains Mono&#39;,monospace;font-size:9.8pt;&quot;&gt;&lt;br&gt;def &lt;span style=&quot;color:#56a8f5;&quot;&gt;get_combo_pages_images_listing&lt;/span&gt;(&lt;span style=&quot;color:#94558d;&quot;&gt;self&lt;/span&gt;):&lt;br&gt;    listing = &lt;span style=&quot;color:#94558d;&quot;&gt;self&lt;/span&gt;.pdf_t.list_combo_images_dir()&lt;/pre&gt;&lt;/div&gt;" style="rounded=1;whiteSpace=wrap;html=1;align=left;" vertex="1" parent="1">
          <mxGeometry x="2509" y="2264" width="360" height="60" as="geometry" />
        </mxCell>
        <mxCell id="2yg5KASqGBkeXSeHkA1k-117" value="&lt;div style=&quot;background-color:#1e1f22;color:#bcbec4&quot;&gt;&lt;pre style=&quot;font-family:&#39;JetBrains Mono&#39;,monospace;font-size:9.8pt;&quot;&gt;def &lt;span style=&quot;color:#56a8f5;&quot;&gt;list_combo_images_dir&lt;/span&gt;(&lt;span style=&quot;color:#94558d;&quot;&gt;self&lt;/span&gt;):&lt;br&gt;&lt;/pre&gt;&lt;/div&gt;" style="rounded=1;whiteSpace=wrap;html=1;align=left;" vertex="1" parent="1">
          <mxGeometry x="3080" y="2272" width="120" height="40" as="geometry" />
        </mxCell>
        <mxCell id="2yg5KASqGBkeXSeHkA1k-134" style="edgeStyle=orthogonalEdgeStyle;rounded=0;orthogonalLoop=1;jettySize=auto;html=1;entryX=0;entryY=0.5;entryDx=0;entryDy=0;" edge="1" parent="1" source="2yg5KASqGBkeXSeHkA1k-121" target="2yg5KASqGBkeXSeHkA1k-122">
          <mxGeometry relative="1" as="geometry" />
        </mxCell>
        <mxCell id="2yg5KASqGBkeXSeHkA1k-135" style="edgeStyle=orthogonalEdgeStyle;rounded=0;orthogonalLoop=1;jettySize=auto;html=1;entryX=0;entryY=0.5;entryDx=0;entryDy=0;" edge="1" parent="1" source="2yg5KASqGBkeXSeHkA1k-121" target="2yg5KASqGBkeXSeHkA1k-126">
          <mxGeometry relative="1" as="geometry" />
        </mxCell>
        <mxCell id="2yg5KASqGBkeXSeHkA1k-136" style="edgeStyle=orthogonalEdgeStyle;rounded=0;orthogonalLoop=1;jettySize=auto;html=1;entryX=0;entryY=0.5;entryDx=0;entryDy=0;" edge="1" parent="1" source="2yg5KASqGBkeXSeHkA1k-121" target="2yg5KASqGBkeXSeHkA1k-127">
          <mxGeometry relative="1" as="geometry" />
        </mxCell>
        <mxCell id="2yg5KASqGBkeXSeHkA1k-137" style="edgeStyle=orthogonalEdgeStyle;rounded=0;orthogonalLoop=1;jettySize=auto;html=1;entryX=0;entryY=0.5;entryDx=0;entryDy=0;" edge="1" parent="1" source="2yg5KASqGBkeXSeHkA1k-121" target="2yg5KASqGBkeXSeHkA1k-128">
          <mxGeometry relative="1" as="geometry" />
        </mxCell>
        <mxCell id="2yg5KASqGBkeXSeHkA1k-139" style="edgeStyle=orthogonalEdgeStyle;rounded=0;orthogonalLoop=1;jettySize=auto;html=1;entryX=0;entryY=0.5;entryDx=0;entryDy=0;" edge="1" parent="1" source="2yg5KASqGBkeXSeHkA1k-121" target="2yg5KASqGBkeXSeHkA1k-138">
          <mxGeometry relative="1" as="geometry" />
        </mxCell>
        <mxCell id="2yg5KASqGBkeXSeHkA1k-121" value="&lt;div style=&quot;background-color:#1e1f22;color:#bcbec4&quot;&gt;&lt;pre style=&quot;font-family:&#39;JetBrains Mono&#39;,monospace;font-size:9.8pt;&quot;&gt;&lt;br&gt;def &lt;span style=&quot;color:#56a8f5;&quot;&gt;nj_dashboard_bottom_bar&lt;/span&gt;(&lt;span style=&quot;color:#94558d;&quot;&gt;self&lt;/span&gt;):&lt;br&gt;    &lt;span style=&quot;color:#7a7e85;&quot;&gt;# pdf_ninja&lt;br&gt;&lt;/span&gt;&lt;span style=&quot;color:#7a7e85;&quot;&gt;    &lt;/span&gt;&lt;span style=&quot;color:#94558d;&quot;&gt;self&lt;/span&gt;.pn_bottom_bar = ttk.Frame(&lt;/pre&gt;&lt;/div&gt;" style="rounded=1;whiteSpace=wrap;html=1;align=left;" vertex="1" parent="1">
          <mxGeometry x="1220" y="2605" width="270" height="80" as="geometry" />
        </mxCell>
        <mxCell id="2yg5KASqGBkeXSeHkA1k-122" value="&lt;div style=&quot;background-color:#1e1f22;color:#bcbec4&quot;&gt;&lt;pre style=&quot;font-family:&#39;JetBrains Mono&#39;,monospace;font-size:9.8pt;&quot;&gt;self.combo_filename_entry_frame = ttk.Frame(&lt;br&gt;    &lt;span style=&quot;color:#aa4926;&quot;&gt;master&lt;/span&gt;=&lt;span style=&quot;color:#94558d;&quot;&gt;self&lt;/span&gt;.pn_bottom_bar,&lt;/pre&gt;&lt;/div&gt;" style="shape=process;whiteSpace=wrap;html=1;backgroundOutline=1;" vertex="1" parent="1">
          <mxGeometry x="1280" y="2720" width="415" height="60" as="geometry" />
        </mxCell>
        <mxCell id="2yg5KASqGBkeXSeHkA1k-123" value="&lt;div style=&quot;background-color:#1e1f22;color:#bcbec4&quot;&gt;&lt;pre style=&quot;font-family:&#39;JetBrains Mono&#39;,monospace;font-size:9.8pt;&quot;&gt;self.combo_filename_entry = ttk.Entry(&lt;br&gt;    &lt;span style=&quot;color:#aa4926;&quot;&gt;master&lt;/span&gt;=&lt;span style=&quot;color:#94558d;&quot;&gt;self&lt;/span&gt;.combo_filename_entry_frame,&lt;/pre&gt;&lt;/div&gt;" style="shape=process;whiteSpace=wrap;html=1;backgroundOutline=1;" vertex="1" parent="1">
          <mxGeometry x="1360" y="2810" width="415" height="60" as="geometry" />
        </mxCell>
        <mxCell id="2yg5KASqGBkeXSeHkA1k-124" value="&lt;div style=&quot;background-color:#1e1f22;color:#bcbec4&quot;&gt;&lt;pre style=&quot;font-family:&#39;JetBrains Mono&#39;,monospace;font-size:9.8pt;&quot;&gt;self.button_merge_pages = ttk.Button(&lt;br&gt;    &lt;span style=&quot;color:#aa4926;&quot;&gt;master&lt;/span&gt;=&lt;span style=&quot;color:#94558d;&quot;&gt;self&lt;/span&gt;.combo_filename_entry_frame,&lt;/pre&gt;&lt;/div&gt;" style="shape=process;whiteSpace=wrap;html=1;backgroundOutline=1;align=left;" vertex="1" parent="1">
          <mxGeometry x="1360" y="2900" width="400" height="60" as="geometry" />
        </mxCell>
        <mxCell id="2yg5KASqGBkeXSeHkA1k-131" style="edgeStyle=orthogonalEdgeStyle;rounded=0;orthogonalLoop=1;jettySize=auto;html=1;" edge="1" parent="1" source="2yg5KASqGBkeXSeHkA1k-126">
          <mxGeometry relative="1" as="geometry">
            <mxPoint x="1940" y="3398.9999999999995" as="targetPoint" />
          </mxGeometry>
        </mxCell>
        <mxCell id="2yg5KASqGBkeXSeHkA1k-126" value="&lt;div style=&quot;background-color:#1e1f22;color:#bcbec4&quot;&gt;&lt;pre style=&quot;font-family:&#39;JetBrains Mono&#39;,monospace;font-size:9.8pt;&quot;&gt;&lt;div&gt;&lt;pre style=&quot;font-family:&#39;JetBrains Mono&#39;,monospace;font-size:9.8pt;&quot;&gt;bottom_btn_0 = ttk.Button(&lt;br&gt;    master=&lt;span style=&quot;color:#94558d;&quot;&gt;self&lt;/span&gt;.pn_bottom_bar,&lt;br&gt;    &lt;span style=&quot;color:#aa4926;&quot;&gt;text&lt;/span&gt;=&lt;span style=&quot;color:#6aab73;&quot;&gt;&#39;Merge Final Pages&#39;&lt;/span&gt;,&lt;br&gt;    &lt;span style=&quot;color:#aa4926;&quot;&gt;style&lt;/span&gt;=PRIMARY,&lt;br&gt;    &lt;span style=&quot;color:#aa4926;&quot;&gt;cursor&lt;/span&gt;=&lt;span style=&quot;color:#6aab73;&quot;&gt;&#39;hand2&#39;&lt;/span&gt;,&lt;br&gt;    &lt;span style=&quot;color:#aa4926;&quot;&gt;command&lt;/span&gt;=&lt;span style=&quot;color:#cf8e6d;&quot;&gt;lambda&lt;/span&gt;: &lt;span style=&quot;color:#94558d;&quot;&gt;self&lt;/span&gt;.dummy_func(),&lt;/pre&gt;&lt;/div&gt;&lt;/pre&gt;&lt;/div&gt;" style="shape=process;whiteSpace=wrap;html=1;backgroundOutline=1;align=left;" vertex="1" parent="1">
          <mxGeometry x="1280" y="3179" width="370" height="110" as="geometry" />
        </mxCell>
        <mxCell id="2yg5KASqGBkeXSeHkA1k-130" style="edgeStyle=orthogonalEdgeStyle;rounded=0;orthogonalLoop=1;jettySize=auto;html=1;" edge="1" parent="1" source="2yg5KASqGBkeXSeHkA1k-127" target="2yg5KASqGBkeXSeHkA1k-129">
          <mxGeometry relative="1" as="geometry" />
        </mxCell>
        <mxCell id="2yg5KASqGBkeXSeHkA1k-127" value="&lt;div style=&quot;background-color:#1e1f22;color:#bcbec4&quot;&gt;&lt;pre style=&quot;font-family:&#39;JetBrains Mono&#39;,monospace;font-size:9.8pt;&quot;&gt;&lt;br&gt;bottom_btn_1 = ttk.Button(&lt;br&gt;    master=&lt;span style=&quot;color:#94558d;&quot;&gt;self&lt;/span&gt;.pn_bottom_bar,&lt;br&gt;    &lt;span style=&quot;color:#aa4926;&quot;&gt;text&lt;/span&gt;=&lt;span style=&quot;color:#6aab73;&quot;&gt;&#39;Build Combo&#39;&lt;/span&gt;,&lt;br&gt;    &lt;span style=&quot;color:#aa4926;&quot;&gt;style&lt;/span&gt;=PRIMARY,&lt;br&gt;    &lt;span style=&quot;color:#aa4926;&quot;&gt;cursor&lt;/span&gt;=&lt;span style=&quot;color:#6aab73;&quot;&gt;&#39;hand2&#39;&lt;/span&gt;,&lt;br&gt;    &lt;span style=&quot;color:#aa4926;&quot;&gt;command&lt;/span&gt;=&lt;span style=&quot;color:#cf8e6d;&quot;&gt;lambda&lt;/span&gt;: &lt;span style=&quot;color:#94558d;&quot;&gt;self&lt;/span&gt;.dummy_func(),&lt;br&gt;)&lt;/pre&gt;&lt;/div&gt;" style="shape=process;whiteSpace=wrap;html=1;backgroundOutline=1;align=left;" vertex="1" parent="1">
          <mxGeometry x="1280" y="3329" width="370" height="150" as="geometry" />
        </mxCell>
        <mxCell id="2yg5KASqGBkeXSeHkA1k-142" style="edgeStyle=orthogonalEdgeStyle;rounded=0;orthogonalLoop=1;jettySize=auto;html=1;exitX=1;exitY=0.5;exitDx=0;exitDy=0;" edge="1" parent="1" source="2yg5KASqGBkeXSeHkA1k-128" target="2yg5KASqGBkeXSeHkA1k-140">
          <mxGeometry relative="1" as="geometry" />
        </mxCell>
        <mxCell id="2yg5KASqGBkeXSeHkA1k-128" value="&lt;div style=&quot;background-color:#1e1f22;color:#bcbec4&quot;&gt;&lt;pre style=&quot;font-family:&#39;JetBrains Mono&#39;,monospace;font-size:9.8pt;&quot;&gt;&lt;div&gt;&lt;pre style=&quot;font-family:&#39;JetBrains Mono&#39;,monospace;font-size:9.8pt;&quot;&gt;bottom_btn_2 = ttk.Button(&lt;br&gt;    master=&lt;span style=&quot;color:#94558d;&quot;&gt;self&lt;/span&gt;.pn_bottom_bar,&lt;br&gt;    &lt;span style=&quot;color:#aa4926;&quot;&gt;text&lt;/span&gt;=&lt;span style=&quot;color:#6aab73;&quot;&gt;&#39;POPUP: get combo name&#39;&lt;/span&gt;,&lt;br&gt;    &lt;span style=&quot;color:#aa4926;&quot;&gt;style&lt;/span&gt;=DANGER,&lt;br&gt;    &lt;span style=&quot;color:#aa4926;&quot;&gt;cursor&lt;/span&gt;=&lt;span style=&quot;color:#6aab73;&quot;&gt;&#39;hand2&#39;&lt;/span&gt;,&lt;br&gt;    &lt;span style=&quot;color:#aa4926;&quot;&gt;command&lt;/span&gt;=&lt;span style=&quot;color:#cf8e6d;&quot;&gt;lambda&lt;/span&gt;: &lt;span style=&quot;color:#94558d;&quot;&gt;self&lt;/span&gt;.open_get_combo_dialog(),&lt;br&gt;)&lt;/pre&gt;&lt;/div&gt;&lt;/pre&gt;&lt;/div&gt;" style="shape=process;whiteSpace=wrap;html=1;backgroundOutline=1;align=left;" vertex="1" parent="1">
          <mxGeometry x="1280" y="3529" width="450" height="150" as="geometry" />
        </mxCell>
        <mxCell id="2yg5KASqGBkeXSeHkA1k-129" value="&lt;div style=&quot;background-color:#1e1f22;color:#bcbec4&quot;&gt;&lt;pre style=&quot;font-family:&#39;JetBrains Mono&#39;,monospace;font-size:9.8pt;&quot;&gt;&lt;br&gt;def &lt;span style=&quot;color:#56a8f5;&quot;&gt;dummy_func&lt;/span&gt;(&lt;span style=&quot;color:#94558d;&quot;&gt;self&lt;/span&gt;):&lt;br&gt;    ic(&lt;span style=&quot;color:#6aab73;&quot;&gt;&#39;in dummy_func()&#39;&lt;/span&gt;)&lt;br&gt;&lt;/pre&gt;&lt;/div&gt;" style="rounded=1;whiteSpace=wrap;html=1;align=left;" vertex="1" parent="1">
          <mxGeometry x="1945" y="3364" width="200" height="80" as="geometry" />
        </mxCell>
        <mxCell id="2yg5KASqGBkeXSeHkA1k-138" value="&lt;div style=&quot;background-color:#1e1f22;color:#bcbec4&quot;&gt;&lt;pre style=&quot;font-family:&#39;JetBrains Mono&#39;,monospace;font-size:9.8pt;&quot;&gt;&lt;br&gt;self.bottom_lbl_0 = ttk.Label(&lt;br&gt;    &lt;span style=&quot;color:#aa4926;&quot;&gt;master&lt;/span&gt;=&lt;span style=&quot;color:#94558d;&quot;&gt;self&lt;/span&gt;.pn_bottom_bar,&lt;br&gt;    &lt;span style=&quot;color:#aa4926;&quot;&gt;text&lt;/span&gt;=&lt;span style=&quot;color:#6aab73;&quot;&gt;&#39;Status Label: &#39;&lt;/span&gt;,&lt;br&gt;    &lt;span style=&quot;color:#aa4926;&quot;&gt;style&lt;/span&gt;=LIGHT,&lt;br&gt;    &lt;span style=&quot;color:#aa4926;&quot;&gt;font&lt;/span&gt;=&lt;span style=&quot;color:#6aab73;&quot;&gt;&#39;Helvetica, 12&#39;&lt;/span&gt;,&lt;br&gt;)&lt;/pre&gt;&lt;/div&gt;" style="shape=process;whiteSpace=wrap;html=1;backgroundOutline=1;align=left;" vertex="1" parent="1">
          <mxGeometry x="1280" y="3020" width="293" height="130" as="geometry" />
        </mxCell>
        <mxCell id="2yg5KASqGBkeXSeHkA1k-143" style="edgeStyle=orthogonalEdgeStyle;rounded=0;orthogonalLoop=1;jettySize=auto;html=1;" edge="1" parent="1" source="2yg5KASqGBkeXSeHkA1k-140" target="2yg5KASqGBkeXSeHkA1k-141">
          <mxGeometry relative="1" as="geometry" />
        </mxCell>
        <mxCell id="2yg5KASqGBkeXSeHkA1k-141" value="&lt;div style=&quot;background-color:#1e1f22;color:#bcbec4&quot;&gt;&lt;pre style=&quot;font-family:&#39;JetBrains Mono&#39;,monospace;font-size:9.8pt;&quot;&gt;def &lt;span style=&quot;color:#56a8f5;&quot;&gt;refresh_combo_name&lt;/span&gt;(&lt;span style=&quot;color:#94558d;&quot;&gt;self&lt;/span&gt;, combo_name):&lt;br&gt;    ic(&lt;span style=&quot;color:#6aab73;&quot;&gt;&#39;update function from main window...&#39;&lt;/span&gt;)&lt;br&gt;    &lt;span style=&quot;color:#94558d;&quot;&gt;self&lt;/span&gt;.current_combo_name = combo_name.get()&lt;/pre&gt;&lt;/div&gt;" style="rounded=1;whiteSpace=wrap;html=1;align=left;" vertex="1" parent="1">
          <mxGeometry x="2509" y="3572.5" width="350" height="60" as="geometry" />
        </mxCell>
        <mxCell id="2yg5KASqGBkeXSeHkA1k-145" value="" style="group" connectable="0" vertex="1" parent="1">
          <mxGeometry x="1932" y="3547.5" width="450" height="80.5" as="geometry" />
        </mxCell>
        <mxCell id="2yg5KASqGBkeXSeHkA1k-140" value="&lt;div style=&quot;background-color:#1e1f22;color:#bcbec4&quot;&gt;&lt;pre style=&quot;font-family:&#39;JetBrains Mono&#39;,monospace;font-size:9.8pt;&quot;&gt;def &lt;span style=&quot;color:#56a8f5;&quot;&gt;open_get_combo_dialog&lt;/span&gt;(&lt;span style=&quot;color:#94558d;&quot;&gt;self&lt;/span&gt;):&lt;br&gt;    &lt;span style=&quot;color:#6f737a;&quot;&gt;getComboDialog &lt;/span&gt;= GetComboDialog(&lt;span style=&quot;color:#94558d;&quot;&gt;self&lt;/span&gt;.refresh_combo_name)&lt;/pre&gt;&lt;/div&gt;" style="rounded=1;whiteSpace=wrap;html=1;align=left;" vertex="1" parent="2yg5KASqGBkeXSeHkA1k-145">
          <mxGeometry y="31.5" width="450" height="49" as="geometry" />
        </mxCell>
        <mxCell id="2yg5KASqGBkeXSeHkA1k-144" value="TODO: references GetComboDialog class" style="text;html=1;strokeColor=none;fillColor=none;align=center;verticalAlign=middle;whiteSpace=wrap;rounded=0;" vertex="1" parent="2yg5KASqGBkeXSeHkA1k-145">
          <mxGeometry width="238" height="30" as="geometry" />
        </mxCell>
      </root>
    </mxGraphModel>
  </diagram>
</mxfile>
